<?xml version="1.0" encoding="UTF-8"?>
<svg id="Layer_2" xmlns="http://www.w3.org/2000/svg" viewBox="0 0 283.46 217.15">
  <defs>
    <style>
      .cls-1 {
        fill: #b2292e;
      }
    </style>
  </defs>
  <g id="Layer_1-2" data-name="Layer_1">
    <g>
      <path class="cls-1" d="M258.24,199.84c0-1.53.37-2.95,1.12-4.26.75-1.31,1.78-2.34,3.1-3.1,1.32-.75,2.75-1.13,4.28-1.13s2.96.38,4.28,1.13c1.32.75,2.36,1.79,3.1,3.1.75,1.31,1.12,2.73,1.12,4.26s-.38,2.98-1.14,4.29c-.76,1.31-1.79,2.35-3.11,3.1-1.31.75-2.73,1.13-4.26,1.13s-2.97-.38-4.28-1.14c-1.31-.76-2.35-1.79-3.1-3.1-.75-1.31-1.13-2.74-1.13-4.27ZM259.71,199.84c0,1.25.3,2.42.89,3.5.6,1.08,1.44,1.95,2.53,2.61,1.09.66,2.3.98,3.62.98s2.51-.33,3.6-.98c1.09-.65,1.93-1.52,2.53-2.6.6-1.08.9-2.25.9-3.51s-.3-2.43-.9-3.51c-.6-1.08-1.45-1.94-2.54-2.59-1.09-.65-2.29-.97-3.59-.97s-2.45.31-3.54.93c-1.09.62-1.95,1.48-2.57,2.57-.62,1.09-.93,2.28-.93,3.57ZM265.02,200.71v3.83h-1.81v-9.66h3.37c1.23,0,2.19.27,2.87.8.68.53,1.02,1.27,1.02,2.21,0,.83-.43,1.48-1.28,1.93.46.24.79.58.97,1s.28.95.28,1.57.01,1.07.04,1.32c.03.26.08.47.16.65v.18h-1.86c-.1-.26-.16-.99-.16-2.21,0-.58-.13-.99-.4-1.24-.26-.25-.7-.38-1.32-.38h-1.89ZM265.02,199.18h1.53c.61,0,1.11-.12,1.51-.36.4-.24.6-.56.6-.96,0-.53-.14-.91-.43-1.13-.28-.22-.8-.34-1.54-.35h-1.69v2.8Z"/>
      <g>
        <path class="cls-1" d="M141.75,46.41c-50.1,0-90.86,27.83-90.86,62.05s40.76,62.05,90.86,62.05,90.87-27.84,90.87-62.05-40.77-62.05-90.87-62.05ZM141.75,167.08c-47.79,0-86.67-26.29-86.67-58.61s38.88-58.61,86.67-58.61,86.67,26.29,86.67,58.61-38.88,58.61-86.67,58.61Z"/>
        <path class="cls-1" d="M141.73,0C63.58,0,0,48.71,0,108.58s63.58,108.58,141.73,108.58,141.73-48.71,141.73-108.58S219.89,0,141.73,0ZM141.73,213.88C65.39,213.88,3.27,166.64,3.27,108.58S65.39,3.28,141.73,3.28s138.46,47.24,138.46,105.3-62.11,105.3-138.46,105.3Z"/>
        <path class="cls-1" d="M215.86,115.96h-.02c-5.21,3.4-13.16,5.12-23.63,5.12-23.75,0-52.89-8.65-56.13-9.63-16.77-4.69-30.9-7.08-41.99-7.08-9.53,0-16.67,1.73-21.22,5.13-3.4,2.54-4.66,5.58-5.12,7.75-.23,1.11-.11,2.28.29,3.34,7.97,21.44,38.61,36.81,73.93,36.81,37.78,0,69.55-17.68,75.06-40.53.17-.72-.58-1.3-1.18-.9M143.01,120.21s-22.32,2.97-28.42,3.67c-.16.02-.27-.16-.19-.3l2.27-3.75c.09-.15-.05-.32-.22-.27l-19.34,5.72c-.17.05-.31-.14-.21-.28l2.79-4.31c.09-.14-.03-.33-.2-.3-2.67.45-16.67,3.42-11.54,15.91.1.24-.2.45-.39.28-2.82-2.5-11.88-10.87-13.35-16.7-.24-.94-.15-1.93.28-2.79,1.75-3.56,9.6-12.61,42.68-3.66,0,0,25.02,5.74,28.85,6.5.16.03-3.03.3-3.03.3"/>
        <g>
          <path class="cls-1" d="M72.91,163.03c-3.73-2.75-7.58-4.21-11.14-4.21s-6.54,1.46-8.58,4.23c-1.9,2.57-2.5,5.73-1.68,8.91.87,3.41,3.29,6.66,7.01,9.41,3.71,2.75,6.55,3.69,8.07,4.2l.84.28.86-4.85-.65-.2c-1.14-.34-3.26-.99-5.16-2.4-1.79-1.33-5.57-4.96-1.82-10.04,1.39-1.87,3.17-2.86,5.15-2.86,1.65,0,3.37.66,5.11,1.95,1.81,1.34,3.11,2.97,3.81,3.85l.4.51,4.27-2.39-.56-.71c-1.64-2.07-3.69-4.04-5.93-5.7"/>
          <path class="cls-1" d="M98.93,174.78c-2.18-.67-4.29-1.01-6.27-1.01-1.73,0-3.34.26-4.8.77-3.33,1.17-5.65,3.6-6.7,7.01-1.58,5.1.24,12.18,10.55,15.38,2.19.68,4.31,1.02,6.29,1.02,5.82,0,10.06-2.92,11.63-8.01,1.16-3.74.5-7.08-1.96-9.92-2.47-2.86-6.12-4.43-8.74-5.24M100.86,187.28c-.8,2.59-2,4.32-3.56,5.14-.68.36-1.44.54-2.25.54-.59,0-1.21-.1-1.82-.29-1.86-.58-3.03-1.51-3.57-2.86-.55-1.36-.46-3.23.25-5.55,1.17-3.8,2.9-5.56,5.45-5.56.67,0,1.41.12,2.2.37,1.89.59,3.05,1.53,3.57,2.89.51,1.34.42,3.08-.28,5.32"/>
          <polygon class="cls-1" points="117.87 202.6 126.63 203.36 127.37 194.73 138.4 195.68 138.82 190.87 127.79 189.92 128.17 185.53 140.03 186.56 140.44 181.78 119.83 180 117.87 202.6"/>
          <polygon class="cls-1" points="169.93 188.71 158.92 189.78 158.49 185.41 170.34 184.24 169.88 179.48 149.28 181.47 151.48 204.07 160.23 203.21 159.39 194.6 170.41 193.52 169.93 188.71"/>
          <polygon class="cls-1" points="223.51 177.16 220.94 173.43 230.05 167.15 227.4 163.31 218.29 169.59 216.13 166.46 225.94 159.7 223.21 155.75 206.17 167.51 219.07 186.18 236.27 174.31 233.48 170.28 223.51 177.16"/>
          <polygon class="cls-1" points="192.06 191.92 190.69 187.61 201.25 184.26 199.83 179.82 189.28 183.16 188.13 179.54 199.49 175.94 198.04 171.37 178.31 177.61 185.16 199.24 205.09 192.93 203.61 188.27 192.06 191.92"/>
        </g>
        <g>
          <polygon class="cls-1" points="47.61 80.33 50.98 73.06 30.4 63.52 27.03 70.79 34.8 74.39 31.28 81.98 23.52 78.37 20.15 85.64 40.73 95.18 44.1 87.91 35.57 83.96 39.1 76.38 47.61 80.33"/>
          <rect class="cls-1" x="48.87" y="44.8" width="8.01" height="22.68" transform="translate(-24.05 50.74) rotate(-42.7)"/>
          <path class="cls-1" d="M70.29,52.88c.72.13,1.48.19,2.25.19,2.8,0,5.75-.83,8.77-2.45,3.46-1.86,5.61-3.92,7.51-5.87l.4-.4-5.33-9.89-10.64,5.73,2.19,4.05,3.86-2.08,1.78,3.31c-.47.29-1.08.65-1.65.93-1.28.57-2.49.86-3.59.86-2.3,0-4.16-1.27-5.51-3.79-2.09-3.9-.8-7.59,3.45-9.88,1.89-1.02,3.76-1.47,5-1.71l.71-.14-.65-4.79-.81.18c-2.45.53-4.94,1.47-7.39,2.79-8.04,4.33-11.2,11.42-7.85,17.63,1.55,2.87,4.21,4.77,7.5,5.35"/>
          <path class="cls-1" d="M223.54,64.85c3.24,3.3,5.29,5.06,8.18,6.14,1.33.5,2.67.75,3.99.75,3.9,0,6.68-2.15,7.99-3.44,1.27-1.24,4.11-4.63,2.99-9.21-1-4.05-3.81-6.91-6.53-9.69l-6.37-6.51-16.2,15.87,5.97,6.1ZM236.09,51.83l1.27,1.3c1.36,1.38,2.9,2.94,2.88,4.8-.01,1.35-.81,2.79-2.45,4.39-2.05,2-3.83,2.98-5.49,2.98h0c-1.93-.02-3.38-1.52-4.65-2.83l-1.18-1.21,9.63-9.42Z"/>
          <polygon class="cls-1" points="199.19 35.37 205.53 51.76 210.06 53.89 219.73 33.37 214.39 30.86 209.22 41.82 202.89 25.43 198.36 23.3 188.68 43.82 194.02 46.34 199.19 35.37"/>
          <polygon class="cls-1" points="105.21 41.22 103.11 32.06 111.25 30.19 113.36 39.35 121.16 37.55 116.08 15.44 108.27 17.23 110.19 25.58 102.04 27.45 100.12 19.1 92.32 20.9 97.41 43.02 105.21 41.22"/>
          <polygon class="cls-1" points="149.25 36.47 149.14 31.57 138.8 31.79 138.41 14.01 130.41 14.17 130.89 36.86 149.25 36.47"/>
          <path class="cls-1" d="M164.97,33.08l7.95,1.51,1.42,5.59,8.53,1.62-7.16-24.46-4.64-.89-15.67,20.12,6.14,1.16,3.43-4.67ZM170.77,24.29l1.62,6.19-5.38-1.02,3.76-5.17Z"/>
          <path class="cls-1" d="M263.74,88.27c-.04-2.46-.46-4.82-1.24-7.01-1.69-4.73-4.8-7.67-8.11-7.67-.66,0-1.32.12-1.97.35-3.69,1.31-4.41,5.86-4.8,8.31l-.34,2.53c-.48,3.05-.81,3.64-1.42,3.85-.08.03-.16.04-.25.04-.12,0-.26-.03-.4-.1-.61-.29-1.23-1.15-1.64-2.3-.81-2.28-.83-4.21-.78-6.16l.02-.73-4.92-.37-.05.78c-.18,2.96.19,5.53,1.19,8.33,1.06,2.98,2.67,5.23,4.65,6.52,1.18.77,2.49,1.18,3.77,1.18.7,0,1.4-.12,2.06-.36,3.73-1.33,4.4-5.47,4.9-8.5l.36-2.66c.32-2.03.56-3.28,1.12-3.48.06-.02.13-.03.19-.03.1,0,.2.03.31.08.56.26,1.12,1.07,1.5,2.16.49,1.35.79,3.16.87,5.22l.03.72,4.92.1v-.79Z"/>
        </g>
        <path class="cls-1" d="M93.43,96.11c11.76,0,26.62,2.59,44.16,7.7,1.53.48,15.1,4.66,30.75,7.38,8.89,1.54,16.77,2.33,23.41,2.33,8.9,0,15.45-1.38,19.47-4.09,1.38-.93,2.49-1.98,3.32-3.13,1.56-2.15,1.93-5.08,1.08-7.67-1.22-3.71-3.1-7.31-5.61-10.75-.56-.76-1.52-.97-2.31-.53-2.43,1.34-5.13,2.01-8.06,2.01-6.58,0-12-3.42-12.23-3.57l-.11-.07c-20.18-15.59-33.49-22.82-38.28-25.21-1.07-.53-2.25-.67-3.4-.41-19.79,4.47-31.49,10.32-35.87,12.8-1.29.73-2.67,1.27-4.09,1.57-9.04-3.29-12.45-3.49-12.45-3.49h-.08c-.26,0-.67.2-.9.33-15.33,8.52-24.74,20.45-26.47,33.37.62-.53,1.31-1.09,2.11-1.71,5.86-4.56,14.47-6.88,25.57-6.88M112.97,76.84c1.79-1.04,10.03-5.52,22.9-8.28,1.09-.23,2.22-.11,3.24.36l7.84,3.6c.12.05.15.22.06.32l-6.36,6.87c-.12.13-.02.36.15.34l8.83-1.07c3.75-.46,7.54.36,10.86,2.32,3.18,1.89,7.02,4.23,8.98,5.67.25.18.2.6-.09.7-3.21,1.06-17.12,5.02-32.61-.06-.36-.12-.71-.26-1.05-.43-2.9-1.38-17.46-8.27-22.71-10-.15-.05-.17-.27-.03-.35M77.32,92.65c2.56-5,6.09-8.49,9.2-10.98,2.69-2.02,5.27-3.64,7.11-4.73.05-.03.1-.03.16-.01,2.39.86,5.8,2.17,9.59,3.89.09.04.11.16.03.22l-5.94,5.03c-.1.1-.01.28.12.25,1.17-.3,5.99-1.96,9.47-2.53,1.2-.2,2.43.08,3.46.72,4.73,2.91,8.83,5.78,11.3,7.57.31.26.82.68,1.14.94,1.35,1.25,2.33,2.07,3.02,2.55.03.03.07.07.1.11.15.15,0,.4-.19.34-26.49-7.27-45.79-3.94-48.38-3.07-.15.05-.28-.13-.21-.28"/>
      </g>
    </g>
  </g>
</svg>