<?xml version="1.0" encoding="UTF-8"?>
<!DOCTYPE svg PUBLIC "-//W3C//DTD SVG 1.1//EN" "http://www.w3.org/Graphics/SVG/1.1/DTD/svg11.dtd">
<!-- Creator: CorelDRAW X7 -->
<svg xmlns="http://www.w3.org/2000/svg" xml:space="preserve" width="267.119mm" height="121.231mm" version="1.1" style="shape-rendering:geometricPrecision; text-rendering:geometricPrecision; image-rendering:optimizeQuality; fill-rule:evenodd; clip-rule:evenodd"
viewBox="0 0 27048 12276"
 xmlns:xlink="http://www.w3.org/1999/xlink">
 <defs>
  <style type="text/css">
   <![CDATA[
    .fil3 {fill:#1D1D1B}
    .fil6 {fill:white;fill-rule:nonzero}
    .fil5 {fill:#917E4D;fill-opacity:0.400000}
    .fil4 {fill:#B19A3D;fill-opacity:0.501961}
    .fil1 {fill:url(#id0)}
    .fil2 {fill:url(#id1)}
    .fil0 {fill:url(#id2)}
   ]]>
  </style>
  <linearGradient id="id0" gradientUnits="userSpaceOnUse" x1="-0" y1="6137.84" x2="27045.4" y2="6137.84">
   <stop offset="0" style="stop-opacity:1; stop-color:#FFF59B"/>
   <stop offset="0.219608" style="stop-opacity:1; stop-color:#FFF59B"/>
   <stop offset="0.329412" style="stop-opacity:1; stop-color:#FFFBDC"/>
   <stop offset="0.388235" style="stop-opacity:1; stop-color:#FFFBD8"/>
   <stop offset="0.439216" style="stop-opacity:1; stop-color:lemonchiffon"/>
   <stop offset="0.501961" style="stop-opacity:1; stop-color:#FFF8BB"/>
   <stop offset="0.521569" style="stop-opacity:1; stop-color:#FFF7B2"/>
   <stop offset="0.611765" style="stop-opacity:1; stop-color:#FFF7AE"/>
   <stop offset="0.701961" style="stop-opacity:1; stop-color:#FFF6A3"/>
   <stop offset="0.74902" style="stop-opacity:1; stop-color:#FFF59B"/>
   <stop offset="0.988235" style="stop-opacity:1; stop-color:#FFF59B"/>
   <stop offset="1" style="stop-opacity:1; stop-color:#FFF59B"/>
  </linearGradient>
  <linearGradient id="id1" gradientUnits="userSpaceOnUse" x1="-0" y1="6137.84" x2="27045.4" y2="6137.84">
   <stop offset="0" style="stop-opacity:1; stop-color:#AF862B"/>
   <stop offset="0.0313725" style="stop-opacity:1; stop-color:#C09936"/>
   <stop offset="0.0784314" style="stop-opacity:1; stop-color:#D3AF42"/>
   <stop offset="0.109804" style="stop-opacity:1; stop-color:#DAB747"/>
   <stop offset="0.231373" style="stop-opacity:1; stop-color:#FAE9A2"/>
   <stop offset="0.270588" style="stop-opacity:1; stop-color:#F8E79E"/>
   <stop offset="0.301961" style="stop-opacity:1; stop-color:#F4E093"/>
   <stop offset="0.329412" style="stop-opacity:1; stop-color:#ECD481"/>
   <stop offset="0.34902" style="stop-opacity:1; stop-color:#E1C467"/>
   <stop offset="0.360784" style="stop-opacity:1; stop-color:#DDBF5F"/>
   <stop offset="0.509804" style="stop-opacity:1; stop-color:#DCBE5B"/>
   <stop offset="0.65098" style="stop-opacity:1; stop-color:#DABA50"/>
   <stop offset="0.74902" style="stop-opacity:1; stop-color:#D7B544"/>
   <stop offset="0.819608" style="stop-opacity:1; stop-color:#D4B142"/>
   <stop offset="0.890196" style="stop-opacity:1; stop-color:#CBA63C"/>
   <stop offset="0.960784" style="stop-opacity:1; stop-color:#BB9432"/>
   <stop offset="1" style="stop-opacity:1; stop-color:#AF862B"/>
  </linearGradient>
  <radialGradient id="id2" gradientUnits="userSpaceOnUse" gradientTransform="matrix(1.06399 -0 -0 1.06401 -882 -154)" cx="13785.1" cy="2413.55" r="1728.04" fx="13785.1" fy="2413.55">
   <stop offset="0" style="stop-opacity:1; stop-color:#005F37"/>
   <stop offset="1" style="stop-opacity:1; stop-color:#004026"/>
  </radialGradient>
 </defs>
 <g id="Слой_x0020_1">
  <metadata id="CorelCorpID_0Corel-Layer"/>
  <path id="Shape" class="fil0" d="M16437 2081c-521,588 -1723,818 -2548,851 -972,39 -1774,140 -2662,-245 -193,-84 -779,-466 -820,-606l-10310 0 988 6658 24863 0 989 -6658 -10500 0z"/>
  <path id="Shape_0" class="fil1" d="M16265 3969l480 -1825c-250,-228 -529,-419 -831,-569 -68,591 -686,823 -1299,587 -551,-215 -609,-566 -609,-825 11,-233 134,-445 329,-570l-959 -767 -936 766c196,125 319,338 330,571 0,260 -58,610 -609,824 -613,238 -1231,6 -1299,-587 -304,147 -584,339 -832,569l477 1824 -10507 0 1146 8309 24753 0 1149 -8309 -10780 0 -3 2z"/>
  <path id="Shape_1" class="fil2" d="M16265 3969l480 -1825c-250,-228 -529,-419 -831,-569 -68,591 -686,823 -1299,587 -551,-215 -609,-566 -609,-825 11,-233 134,-445 329,-570l-959 -767 -936 766c196,125 319,338 330,571 0,260 -58,610 -609,824 -613,238 -1231,6 -1299,-587 -304,147 -584,339 -832,569l477 1824 -10507 0 1146 8309 24753 0 1149 -8309 -10780 0 -3 2z"/>
  <g id="_244446080">
   <path id="Shape_2" class="fil3" d="M20104 7861c139,-19 896,-114 896,-922 0,-932 -1273,-905 -1628,-905l-1479 0 0 8c114,112 151,372 151,583l0 2772c0,211 -47,476 -149,582l0 8 1877 0c453,0 1450,-177 1450,-1071 -5,-818 -701,-988 -1118,-1055zm-628 1693c-174,2 -346,-28 -508,-88l0 -3002 437 0c288,0 652,112 652,544 0,549 -402,729 -637,729l-112 0 -101 366c583,0 1002,163 1002,765 -2,581 -416,686 -734,686l1 0z"/>
   <path id="Shape_3" class="fil3" d="M6014 9984l0 -8c-64,-134 -11,-352 96,-591l165 -397 1506 0 421 996 1161 0 0 -8c-154,-97 -308,-395 -414,-640l-1442 -3302 -578 0 -1727 3953 812 -3zm437 -1416l575 -1355 581 1355 -1155 0 -1 0z"/>
   <path id="Shape_4" class="fil3" d="M2575 6034l0 416 1221 0 0 2058c0,1283 -686,1942 -1544,1952l-171 0 97 359 223 0c1533,-49 2384,-1043 2384,-2761l0 -2024 -2210 0z"/>
   <path id="Shape_5" class="fil3" d="M15189 5826c-1150,0 -2081,735 -2081,2089 0,1408 932,2072 2081,2072 1148,0 2080,-716 2080,-2084 0,-1367 -931,-2077 -2080,-2077zm0 3727c-694,0 -1035,-626 -1035,-1647 0,-1021 383,-1646 1040,-1646 699,0 1040,623 1040,1646 0,1023 -370,1647 -1048,1647l3 0z"/>
   <path id="Shape_6" class="fil3" d="M24545 8873c44,-526 -129,-894 -1130,-1386 -728,-356 -931,-448 -886,-824 25,-215 245,-410 689,-410 445,0 891,221 1047,518l8 0 169 -632c-357,-212 -736,-313 -1240,-313 -797,0 -1496,430 -1496,1156 0,692 478,926 1048,1208 538,267 859,440 808,865 -41,355 -349,494 -694,494 -424,0 -851,-184 -1054,-505l-10 0 -165 627c376,233 788,316 1247,316 491,1 1580,-150 1659,-1114z"/>
   <path id="Shape_7" class="fil3" d="M10430 7903c0,917 453,1578 1293,1582 429,0 840,-166 999,-436l9 0 169 629c-358,212 -816,309 -1335,309 -1157,0 -2202,-755 -2202,-2084 0,-1329 1045,-2077 2202,-2077 517,0 976,97 1335,309l-169 629 -8 0c-160,-274 -570,-437 -999,-437 -836,6 -1294,661 -1294,1576z"/>
   <path id="Shape_8" class="fil3" d="M10430 7903c0,917 453,1578 1293,1582 429,0 840,-166 999,-436l9 0 169 629c-358,212 -816,309 -1335,309 -1157,0 -2202,-755 -2202,-2084 0,-1329 1045,-2077 2202,-2077 517,0 976,97 1335,309l-169 629 -8 0c-160,-274 -570,-437 -999,-437 -836,6 -1294,661 -1294,1576z"/>
  </g>
  <path id="Shape_9" class="fil4" d="M13420 2705c-1436,0 -2601,558 -2601,1248 0,690 1164,1249 2601,1249 1437,0 2601,-560 2601,-1249 -2,-705 -1165,-1248 -2601,-1248zm2266 1073c-127,273 -714,759 -2130,417l-291 -72c-1260,-322 -1784,-98 -2044,96 -15,18 -40,25 -63,20 -17,-10 -17,-33 0,-62 127,-272 775,-784 2190,-442l292 70c1306,320 1724,122 1982,-68 16,-18 40,-26 64,-20 15,9 14,32 0,62l0 -1z"/>
  <path id="Shape_10" class="fil5" d="M13431 2934c1375,0 2500,427 2588,1049 3,-30 3,-60 0,-89 -50,-643 -1146,-1189 -2587,-1189 -1478,0 -2577,564 -2611,1212 -2,34 -2,69 0,103 90,-623 1235,-1086 2610,-1086z"/>
  <path class="fil6" d="M7284 2800l412 0 0 107 -293 0 0 111 258 0 0 107 -258 0 0 115 297 0 0 107 -416 0 0 -547zm782 555c-42,0 -82,-7 -123,-21 -40,-15 -76,-37 -109,-67l71 -85c25,20 51,36 77,48 26,12 55,18 87,18 25,0 44,-5 58,-14 14,-9 21,-21 21,-37l0 -2c0,-8 -2,-15 -5,-21 -3,-6 -8,-11 -16,-17 -8,-5 -20,-10 -34,-15 -14,-5 -33,-11 -56,-17 -27,-6 -52,-14 -75,-22 -22,-9 -41,-19 -57,-31 -16,-12 -28,-27 -36,-46 -9,-18 -13,-41 -13,-68l0 -1c0,-25 4,-48 14,-68 9,-20 22,-37 39,-52 17,-14 37,-25 60,-33 24,-8 49,-12 78,-12 40,0 77,6 110,18 34,12 65,30 93,52l-63 91c-24,-17 -48,-30 -72,-39 -23,-10 -46,-15 -70,-15 -23,0 -41,5 -53,14 -11,9 -17,20 -17,34l0 1c0,9 1,17 5,23 3,7 9,13 18,18 9,5 21,10 36,15 16,5 35,10 59,16 27,7 52,16 74,25 21,9 40,20 54,33 15,12 26,27 34,45 8,17 11,37 11,61l0 2c0,27 -5,51 -14,72 -10,21 -24,39 -42,53 -17,14 -38,25 -63,33 -24,7 -51,11 -81,11zm485 -444l-167 0 0 -111 454 0 0 111 -166 0 0 436 -121 0 0 -436zm443 -111l213 0c43,0 82,7 118,21 36,13 67,33 92,57 26,25 46,53 60,87 14,33 21,68 21,107l0 2c0,38 -7,74 -21,108 -14,33 -34,62 -60,86 -25,25 -56,44 -92,58 -36,14 -75,21 -118,21l-213 0 0 -547zm213 439c25,0 47,-4 68,-12 20,-8 37,-19 52,-34 14,-14 25,-32 33,-51 8,-20 12,-42 12,-67l0 -1c0,-24 -4,-47 -12,-67 -8,-20 -19,-38 -33,-52 -15,-15 -32,-26 -52,-34 -21,-8 -43,-12 -68,-12l-93 0 0 330 93 0z"/>
  <path class="fil6" d="M17544 2918l-95 23 -25 -98 157 -47 82 0 0 551 -119 0 0 -429zm527 437c-31,0 -59,-4 -85,-11 -25,-8 -48,-18 -66,-32 -19,-14 -34,-31 -45,-50 -10,-19 -16,-41 -16,-65l0 -1c0,-34 8,-61 23,-81 15,-21 37,-38 66,-52 -22,-13 -39,-28 -51,-47 -13,-18 -19,-43 -19,-72l0 -2c0,-21 5,-40 14,-58 9,-19 22,-35 39,-48 17,-14 37,-24 61,-32 23,-8 49,-12 79,-12 28,0 54,4 78,12 24,8 44,18 61,31 17,14 30,30 39,48 9,19 14,38 14,59l0 2c0,29 -6,54 -19,72 -12,19 -29,34 -51,47 28,15 50,32 65,52 16,19 24,45 24,78l0 1c0,26 -6,48 -16,68 -11,20 -26,37 -45,51 -18,13 -41,24 -66,31 -26,8 -54,11 -84,11zm0 -331c24,0 43,-7 57,-19 14,-13 21,-29 21,-48l0 -1c0,-17 -7,-32 -21,-45 -13,-13 -32,-20 -57,-20 -25,0 -45,7 -58,20 -14,12 -21,27 -21,44l0 1c0,20 7,36 21,48 15,13 34,20 58,20zm0 232c29,0 52,-7 69,-20 17,-13 25,-29 25,-48l0 -2c0,-21 -9,-38 -26,-49 -18,-12 -41,-18 -68,-18 -28,0 -51,6 -69,18 -17,11 -26,28 -26,49l0 2c0,19 8,35 25,48 17,13 40,20 70,20zm567 101c-40,0 -74,-6 -102,-18 -28,-12 -54,-28 -78,-47l64 -92c20,16 39,28 57,36 18,7 39,11 63,11 33,0 59,-11 77,-34 18,-23 29,-53 34,-90 -14,11 -30,20 -48,27 -18,7 -40,10 -63,10 -30,0 -57,-4 -81,-12 -24,-8 -45,-19 -62,-34 -17,-16 -30,-34 -39,-56 -9,-22 -14,-47 -14,-74l0 -2c0,-28 5,-53 15,-77 10,-23 25,-43 43,-60 18,-17 40,-30 66,-40 26,-10 54,-15 85,-15 18,0 35,2 49,4 15,2 29,6 42,11 12,4 24,10 35,18 11,8 21,16 32,27 10,10 19,21 26,34 8,12 15,27 21,43 5,17 10,36 13,57 3,21 5,45 5,72l0 2c0,44 -6,85 -16,122 -10,36 -26,68 -46,94 -20,26 -45,46 -74,61 -30,14 -65,22 -104,22zm23 -297c30,0 53,-7 69,-23 17,-15 25,-35 25,-58l0 -2c0,-24 -9,-44 -26,-60 -17,-15 -40,-23 -71,-23 -30,0 -53,7 -69,23 -16,15 -24,35 -24,60l0 1c0,25 8,45 25,60 17,15 41,22 71,22zm583 297c-45,0 -83,-8 -116,-22 -33,-15 -63,-35 -89,-60l73 -87c20,19 41,33 62,44 21,10 44,15 68,15 28,0 51,-6 67,-19 16,-13 25,-32 25,-57l0 -1c0,-24 -9,-42 -27,-55 -18,-13 -42,-19 -70,-19 -17,0 -34,1 -49,5 -16,4 -30,9 -43,15l-69 -46 15 -270 337 0 0 105 -234 0 -6 95c11,-3 22,-5 33,-7 11,-1 24,-2 39,-2 27,0 52,3 75,10 23,7 44,17 61,31 18,14 32,32 42,55 10,22 15,48 15,79l0 1c0,30 -5,56 -15,79 -10,23 -24,43 -43,60 -18,16 -40,29 -65,37 -26,9 -55,14 -86,14z"/>
 </g>
</svg>
