<svg xmlns="http://www.w3.org/2000/svg" xmlns:xlink="http://www.w3.org/1999/xlink" version="1.1" width="1600" height="900" style="shape-rendering:geometricPrecision; text-rendering:geometricPrecision; image-rendering:optimizeQuality; fill-rule:evenodd; clip-rule:evenodd">
<g><path style="opacity:1" fill="#ecb11a" d="M 967.5,105.5 C 991.347,123.591 1015.01,141.925 1038.5,160.5C 1038.41,161.496 1038.75,162.329 1039.5,163C 1038,163.167 1036.5,163.333 1035,163.5C 1020.19,161.802 1005.36,160.469 990.5,159.5C 989.833,159.5 989.167,159.5 988.5,159.5C 982.701,158.111 976.701,157.111 970.5,156.5C 969.287,156.747 968.62,157.414 968.5,158.5C 965.545,173.277 962.212,187.944 958.5,202.5C 954.95,213.71 951.95,225.21 949.5,237C 949.316,238.376 948.649,239.209 947.5,239.5C 937.959,223.539 928.959,207.706 920.5,192C 916.215,184.963 912.215,177.797 908.5,170.5C 908.573,168.973 907.906,167.973 906.5,167.5C 904.214,162.569 901.214,158.235 897.5,154.5C 892.126,152.408 886.46,151.075 880.5,150.5C 878.585,150.784 876.919,150.451 875.5,149.5C 867.16,146.584 858.494,144.584 849.5,143.5C 848.833,143.5 848.167,143.5 847.5,143.5C 847.389,142.883 847.056,142.383 846.5,142C 844.527,141.505 842.527,141.338 840.5,141.5C 840.167,141.5 839.833,141.5 839.5,141.5C 837.562,139.837 835.228,139.171 832.5,139.5C 832.167,139.5 831.833,139.5 831.5,139.5C 829.22,137.777 826.553,137.111 823.5,137.5C 808.577,134.767 793.91,131.433 779.5,127.5C 779.833,126.833 780.167,126.167 780.5,125.5C 815.441,119.121 850.441,112.954 885.5,107C 871.253,86.2674 857.253,65.4341 843.5,44.5C 845.981,43.7417 848.648,43.7417 851.5,44.5C 853.403,44.7959 855.07,45.4625 856.5,46.5C 857.635,48.2132 859.302,48.8799 861.5,48.5C 864.443,48.9802 867.11,49.9802 869.5,51.5C 870.635,53.2132 872.302,53.8799 874.5,53.5C 880.65,55.4392 886.65,57.7725 892.5,60.5C 893.287,62.1042 894.62,62.7709 896.5,62.5C 908.486,66.9941 920.486,71.1607 932.5,75C 942.646,60.3661 953.312,46.1995 964.5,32.5C 965.117,32.3893 965.617,32.056 966,31.5C 966.168,56.3367 966.668,81.0034 967.5,105.5 Z"/></g>
<g><path style="opacity:0.698" fill="#f0c451" d="M 967.5,105.5 C 966.668,81.0034 966.168,56.3367 966,31.5C 965.617,32.056 965.117,32.3893 964.5,32.5C 964.415,31.0047 965.081,30.0047 966.5,29.5C 967.5,54.8246 967.833,80.1579 967.5,105.5 Z"/></g>
<g><path style="opacity:1" fill="#c3a76e" d="M 851.5,44.5 C 848.648,43.7417 845.981,43.7417 843.5,44.5C 840.915,43.5346 840.415,42.2012 842,40.5C 845.308,41.761 848.475,43.0944 851.5,44.5 Z"/></g>
<g><path style="opacity:0.447" fill="#cab179" d="M 856.5,46.5 C 858.403,46.7959 860.07,47.4625 861.5,48.5C 859.302,48.8799 857.635,48.2132 856.5,46.5 Z"/></g>
<g><path style="opacity:0.447" fill="#c7ae78" d="M 869.5,51.5 C 871.403,51.7959 873.07,52.4625 874.5,53.5C 872.302,53.8799 870.635,53.2132 869.5,51.5 Z"/></g>
<g><path style="opacity:0.447" fill="#c9af76" d="M 892.5,60.5 C 894.153,60.6596 895.486,61.3263 896.5,62.5C 894.62,62.7709 893.287,62.1042 892.5,60.5 Z"/></g>
<g><path style="opacity:0.071" fill="#9c968d" d="M 780.5,125.5 C 780.167,126.167 779.833,126.833 779.5,127.5C 777.207,126.699 777.54,126.032 780.5,125.5 Z"/></g>
<g><path style="opacity:0.271" fill="#b8a785" d="M 823.5,137.5 C 826.553,137.111 829.22,137.777 831.5,139.5C 828.572,139.435 825.905,138.768 823.5,137.5 Z"/></g>
<g><path style="opacity:0.698" fill="#cbb179" d="M 832.5,139.5 C 835.228,139.171 837.562,139.837 839.5,141.5C 836.933,141.279 834.599,140.612 832.5,139.5 Z"/></g>
<g><path style="opacity:0.447" fill="#ccb37b" d="M 840.5,141.5 C 842.527,141.338 844.527,141.505 846.5,142C 847.056,142.383 847.389,142.883 847.5,143.5C 844.933,143.279 842.599,142.612 840.5,141.5 Z"/></g>
<g><path style="opacity:0.447" fill="#dcbd73" d="M 849.5,143.5 C 858.494,144.584 867.16,146.584 875.5,149.5C 866.579,148.101 857.913,146.101 849.5,143.5 Z"/></g>
<g><path style="opacity:0.447" fill="#e1c071" d="M 880.5,150.5 C 886.46,151.075 892.126,152.408 897.5,154.5C 891.544,153.913 885.878,152.579 880.5,150.5 Z"/></g>
<g><path style="opacity:0.447" fill="#e8c365" d="M 988.5,159.5 C 982.428,159.344 976.428,158.677 970.5,157.5C 969.817,157.863 969.15,158.196 968.5,158.5C 968.62,157.414 969.287,156.747 970.5,156.5C 976.701,157.111 982.701,158.111 988.5,159.5 Z"/></g>
<g><path style="opacity:0.698" fill="#e3be63" d="M 990.5,159.5 C 1005.36,160.469 1020.19,161.802 1035,163.5C 1036.5,163.333 1038,163.167 1039.5,163C 1038.75,162.329 1038.41,161.496 1038.5,160.5C 1040.3,161.793 1041.96,163.293 1043.5,165C 1025.66,163.816 1007.99,161.983 990.5,159.5 Z"/></g>
<g><path style="opacity:0.071" fill="#9c968d" d="M 906.5,167.5 C 907.906,167.973 908.573,168.973 908.5,170.5C 907.094,170.027 906.427,169.027 906.5,167.5 Z"/></g>
<g><path style="opacity:0.173" fill="#8f8b86" d="M 745.5,187.5 C 743.473,187.338 741.473,187.505 739.5,188C 743.795,188.569 747.795,189.736 751.5,191.5C 745.847,190.94 740.514,189.44 735.5,187C 736,186.5 736.5,186 737,185.5C 739.939,186.128 742.772,186.795 745.5,187.5 Z"/></g>
<g><path style="opacity:0.318" fill="#7d7a77" d="M 745.5,187.5 C 755.057,188.199 764.39,189.532 773.5,191.5C 763.918,190.988 754.584,189.655 745.5,187.5 Z"/></g>
<g><path style="opacity:1" fill="#231f20" d="M 745.5,187.5 C 754.584,189.655 763.918,190.988 773.5,191.5C 777.387,191.646 781.054,192.313 784.5,193.5C 794.619,197.062 805.286,199.396 816.5,200.5C 816.833,200.5 817.167,200.5 817.5,200.5C 831.517,205.431 845.85,209.931 860.5,214C 875.574,219.412 890.574,224.912 905.5,230.5C 908.088,232.625 911.088,233.958 914.5,234.5C 916.426,236.293 918.759,237.293 921.5,237.5C 922.492,237.328 923.158,237.662 923.5,238.5C 924.911,240.539 926.911,241.539 929.5,241.5C 930.492,241.328 931.158,241.662 931.5,242.5C 931.973,243.906 932.973,244.573 934.5,244.5C 942.161,247.995 949.495,251.995 956.5,256.5C 957.733,258.796 959.733,260.13 962.5,260.5C 963.802,262.822 965.802,264.155 968.5,264.5C 970.853,265.34 972.853,266.674 974.5,268.5C 978.806,272.321 983.473,275.655 988.5,278.5C 995.824,284.831 1003.16,291.164 1010.5,297.5C 1013.44,302.105 1017.1,306.105 1021.5,309.5C 1035.12,323.072 1043.79,339.405 1047.5,358.5C 1047.97,364.491 1048.3,370.491 1048.5,376.5C 1046.61,399.312 1036.27,416.978 1017.5,429.5C 1012.23,432.11 1007.23,435.11 1002.5,438.5C 1001.49,439.674 1000.15,440.34 998.5,440.5C 993.225,441.031 988.559,442.698 984.5,445.5C 981.123,445.068 978.123,445.735 975.5,447.5C 972.781,448.913 969.781,449.58 966.5,449.5C 940.872,451.683 915.205,452.016 889.5,450.5C 877.769,448.002 865.769,446.335 853.5,445.5C 853.389,444.883 853.056,444.383 852.5,444C 846.157,443.165 839.824,442.331 833.5,441.5C 831.708,441.634 830.042,441.301 828.5,440.5C 825.337,439.153 822.004,437.986 818.5,437C 816.19,436.503 813.857,436.337 811.5,436.5C 805.349,433.11 798.682,431.444 791.5,431.5C 790.4,430.442 789.066,429.608 787.5,429C 779.092,426.982 770.759,424.815 762.5,422.5C 759.916,420.528 756.916,419.528 753.5,419.5C 748.466,418.602 743.799,416.935 739.5,414.5C 737.316,412.415 734.649,411.415 731.5,411.5C 717.145,406.487 703.478,400.153 690.5,392.5C 690.027,391.094 689.027,390.427 687.5,390.5C 680.628,387.283 674.294,383.283 668.5,378.5C 663.465,373.138 657.798,368.471 651.5,364.5C 634.511,350.205 623.345,332.205 618,310.5C 614.435,290.052 619.601,272.385 633.5,257.5C 636.167,255.5 638.5,253.167 640.5,250.5C 643.776,246.529 647.776,243.529 652.5,241.5C 661.669,236.91 671.003,232.91 680.5,229.5C 710.479,224.165 740.479,224.332 770.5,230C 786.391,233.476 802.057,237.642 817.5,242.5C 819.426,244.293 821.759,245.293 824.5,245.5C 830.061,247.28 835.395,249.613 840.5,252.5C 842.843,254.868 845.509,257.035 848.5,259C 847.207,259.49 845.873,259.657 844.5,259.5C 842.485,258.076 840.152,257.41 837.5,257.5C 834.572,257.435 831.905,256.768 829.5,255.5C 827.162,253.96 824.495,253.294 821.5,253.5C 818.572,253.435 815.905,252.768 813.5,251.5C 799.362,246.805 784.696,243.639 769.5,242C 756.692,240.768 743.859,239.935 731,239.5C 724.594,239.326 718.427,239.993 712.5,241.5C 709.941,241.198 707.607,241.532 705.5,242.5C 702.447,242.111 699.78,242.777 697.5,244.5C 693.655,244.288 690.321,245.288 687.5,247.5C 686.791,248.404 685.791,248.737 684.5,248.5C 682.302,248.12 680.635,248.787 679.5,250.5C 678.486,251.674 677.153,252.34 675.5,252.5C 672.318,252.584 669.985,253.917 668.5,256.5C 665.357,256.969 663.023,258.636 661.5,261.5C 658.822,264.873 656.156,268.206 653.5,271.5C 651.163,273.965 649.663,276.965 649,280.5C 647.094,289.887 647.428,299.22 650,308.5C 650.578,311.572 651.745,314.239 653.5,316.5C 654.404,317.209 654.737,318.209 654.5,319.5C 654.783,320.289 655.283,320.956 656,321.5C 656.273,316.771 656.939,312.104 658,307.5C 659.686,303.448 661.852,299.781 664.5,296.5C 667.842,294.164 671.175,291.831 674.5,289.5C 698.612,280.268 723.612,276.768 749.5,279C 785.462,281.026 820.462,287.859 854.5,299.5C 856.792,301.267 859.458,302.267 862.5,302.5C 865.53,304.403 868.863,305.737 872.5,306.5C 881.067,309.12 889.067,312.786 896.5,317.5C 913.789,326.477 930.456,336.477 946.5,347.5C 948.949,350.556 951.949,352.889 955.5,354.5C 956.833,355.167 957.833,356.167 958.5,357.5C 960.569,360.573 963.236,362.906 966.5,364.5C 967.08,366.749 968.413,368.415 970.5,369.5C 976.263,374.688 980.263,381.021 982.5,388.5C 983.254,393.463 983.587,398.463 983.5,403.5C 982.606,406.957 980.94,409.957 978.5,412.5C 978.167,412.5 977.833,412.5 977.5,412.5C 974.985,413.075 974.485,414.075 976,415.5C 988.498,411.189 998.664,403.856 1006.5,393.5C 1007.77,390.24 1009.44,387.24 1011.5,384.5C 1012.12,384.389 1012.62,384.056 1013,383.5C 1016.84,368.942 1016.17,354.609 1011,340.5C 1010.62,339.058 1009.79,338.058 1008.5,337.5C 1008.42,334.318 1007.08,331.985 1004.5,330.5C 1002.27,327.709 1000.27,324.709 998.5,321.5C 997.92,319.251 996.587,317.585 994.5,316.5C 993.833,316.5 993.5,316.167 993.5,315.5C 990.833,310.833 987.167,307.167 982.5,304.5C 980.833,303.5 979.5,302.167 978.5,300.5C 975.769,296.766 972.436,293.766 968.5,291.5C 967.089,289.086 965.089,287.419 962.5,286.5C 960.596,286.262 959.262,285.262 958.5,283.5C 957.415,281.413 955.749,280.08 953.5,279.5C 948.473,276.655 943.806,273.321 939.5,269.5C 937.049,266.723 934.049,264.723 930.5,263.5C 929.508,263.672 928.842,263.338 928.5,262.5C 928.027,261.094 927.027,260.427 925.5,260.5C 921.164,258.668 917.164,256.335 913.5,253.5C 911.911,250.92 909.578,249.587 906.5,249.5C 890.367,241.12 874.033,233.12 857.5,225.5C 846.4,219.798 834.733,215.465 822.5,212.5C 820.044,210.132 817.044,209.132 813.5,209.5C 808.895,206.854 803.895,205.187 798.5,204.5C 795.592,202.395 792.258,201.395 788.5,201.5C 785.749,199.025 782.416,198.025 778.5,198.5C 775.572,198.435 772.905,197.768 770.5,196.5C 765.874,194.168 760.874,192.835 755.5,192.5C 753.901,192.768 752.568,192.434 751.5,191.5C 747.795,189.736 743.795,188.569 739.5,188C 741.473,187.505 743.473,187.338 745.5,187.5 Z"/></g>
<g><path style="opacity:0.173" fill="#84817e" d="M 755.5,192.5 C 760.874,192.835 765.874,194.168 770.5,196.5C 765.191,195.924 760.191,194.591 755.5,192.5 Z"/></g>
<g><path style="opacity:0.827" fill="#646160" d="M 784.5,193.5 C 795.483,194.916 806.15,197.249 816.5,200.5C 805.286,199.396 794.619,197.062 784.5,193.5 Z"/></g>
<g><path style="opacity:0.318" fill="#696766" d="M 778.5,198.5 C 782.416,198.025 785.749,199.025 788.5,201.5C 784.838,201.277 781.505,200.277 778.5,198.5 Z"/></g>
<g><path style="opacity:0.318" fill="#726f6e" d="M 788.5,201.5 C 792.258,201.395 795.592,202.395 798.5,204.5C 794.838,204.277 791.505,203.277 788.5,201.5 Z"/></g>
<g><path style="opacity:0.318" fill="#706e6e" d="M 798.5,204.5 C 803.895,205.187 808.895,206.854 813.5,209.5C 808.216,208.405 803.216,206.739 798.5,204.5 Z"/></g>
<g><path style="opacity:0.596" fill="#6c6968" d="M 817.5,200.5 C 847.958,207.541 877.292,217.541 905.5,230.5C 890.574,224.912 875.574,219.412 860.5,214C 845.85,209.931 831.517,205.431 817.5,200.5 Z"/></g>
<g><path style="opacity:0.78" fill="#676564" d="M 813.5,209.5 C 817.044,209.132 820.044,210.132 822.5,212.5C 819.33,211.735 816.33,210.735 813.5,209.5 Z"/></g>
<g><path style="opacity:0.541" fill="#636060" d="M 822.5,212.5 C 834.733,215.465 846.4,219.798 857.5,225.5C 845.693,221.345 834.026,217.011 822.5,212.5 Z"/></g>
<g><path style="opacity:0.427" fill="#797573" d="M 817.5,242.5 C 802.057,237.642 786.391,233.476 770.5,230C 740.479,224.332 710.479,224.165 680.5,229.5C 688.725,226.707 697.225,224.707 706,223.5C 744.344,222.432 781.51,228.766 817.5,242.5 Z"/></g>
<g><path style="opacity:0.447" fill="#dfbd6c" d="M 958.5,202.5 C 956.161,215.903 952.827,228.903 948.5,241.5C 947.702,241.043 947.369,240.376 947.5,239.5C 948.649,239.209 949.316,238.376 949.5,237C 951.95,225.21 954.95,213.71 958.5,202.5 Z"/></g>
<g><path style="opacity:0.071" fill="#8d8881" d="M 905.5,230.5 C 908.912,231.042 911.912,232.375 914.5,234.5C 911.088,233.958 908.088,232.625 905.5,230.5 Z"/></g>
<g><path style="opacity:0.071" fill="#938e87" d="M 914.5,234.5 C 917.241,234.707 919.574,235.707 921.5,237.5C 918.759,237.293 916.426,236.293 914.5,234.5 Z"/></g>
<g><path style="opacity:0.318" fill="#787573" d="M 680.5,229.5 C 671.003,232.91 661.669,236.91 652.5,241.5C 660.832,235.338 670.165,231.338 680.5,229.5 Z"/></g>
<g><path style="opacity:0.071" fill="#948e85" d="M 923.5,238.5 C 925.819,238.992 927.819,239.992 929.5,241.5C 926.911,241.539 924.911,240.539 923.5,238.5 Z"/></g>
<g><path style="opacity:0.318" fill="#767371" d="M 705.5,242.5 C 707.607,241.532 709.941,241.198 712.5,241.5C 710.294,242.972 707.961,243.305 705.5,242.5 Z"/></g>
<g><path style="opacity:0.933" fill="#625f5d" d="M 813.5,251.5 C 797.206,247.9 781.04,244.9 765,242.5C 763.883,242.665 762.716,242.998 761.5,243.5C 757.687,241.894 753.854,241.561 750,242.5C 737.611,240.473 725.111,240.14 712.5,241.5C 718.427,239.993 724.594,239.326 731,239.5C 743.859,239.935 756.692,240.768 769.5,242C 784.696,243.639 799.362,246.805 813.5,251.5 Z"/></g>
<g><path style="opacity:0.827" fill="#6b6866" d="M 705.5,242.5 C 704.469,243.249 703.302,243.915 702,244.5C 700.701,244.034 699.201,244.034 697.5,244.5C 699.78,242.777 702.447,242.111 705.5,242.5 Z"/></g>
<g><path style="opacity:0.173" fill="#85817e" d="M 817.5,242.5 C 820.241,242.707 822.574,243.707 824.5,245.5C 821.759,245.293 819.426,244.293 817.5,242.5 Z"/></g>
<g><path style="opacity:0.173" fill="#8a8681" d="M 931.5,242.5 C 933.027,242.427 934.027,243.094 934.5,244.5C 932.973,244.573 931.973,243.906 931.5,242.5 Z"/></g>
<g><path style="opacity:0.071" fill="#888480" d="M 697.5,244.5 C 694.381,245.87 691.048,246.87 687.5,247.5C 690.321,245.288 693.655,244.288 697.5,244.5 Z"/></g>
<g><path style="opacity:0.071" fill="#8c8882" d="M 684.5,248.5 C 683.22,249.931 681.553,250.598 679.5,250.5C 680.635,248.787 682.302,248.12 684.5,248.5 Z"/></g>
<g><path style="opacity:0.173" fill="#7a7673" d="M 906.5,249.5 C 909.578,249.587 911.911,250.92 913.5,253.5C 910.669,252.921 908.336,251.588 906.5,249.5 Z"/></g>
<g><path style="opacity:0.173" fill="#7f7b78" d="M 675.5,252.5 C 673.365,254.071 671.032,255.404 668.5,256.5C 669.985,253.917 672.318,252.584 675.5,252.5 Z"/></g>
<g><path style="opacity:0.596" fill="#6c6867" d="M 640.5,250.5 C 638.5,253.167 636.167,255.5 633.5,257.5C 634.833,254.167 637.167,251.833 640.5,250.5 Z"/></g>
<g><path style="opacity:0.173" fill="#8c8883" d="M 821.5,253.5 C 824.495,253.294 827.162,253.96 829.5,255.5C 826.572,255.435 823.905,254.768 821.5,253.5 Z"/></g>
<g><path style="opacity:0.541" fill="#7b7877" d="M 837.5,257.5 C 840.152,257.41 842.485,258.076 844.5,259.5C 841.848,259.59 839.515,258.924 837.5,257.5 Z"/></g>
<g><path style="opacity:0.875" fill="#6e6a67" d="M 956.5,256.5 C 958.882,257.351 960.882,258.684 962.5,260.5C 959.733,260.13 957.733,258.796 956.5,256.5 Z"/></g>
<g><path style="opacity:0.071" fill="#817e7b" d="M 668.5,256.5 C 666.45,258.547 664.117,260.214 661.5,261.5C 663.023,258.636 665.357,256.969 668.5,256.5 Z"/></g>
<g><path style="opacity:0.976" fill="#605c5b" d="M 840.5,252.5 C 845.557,255.113 850.39,258.113 855,261.5C 855.688,262.332 855.521,262.998 854.5,263.5C 850.987,262.336 847.654,261.002 844.5,259.5C 845.873,259.657 847.207,259.49 848.5,259C 845.509,257.035 842.843,254.868 840.5,252.5 Z"/></g>
<g><path style="opacity:0.173" fill="#86827f" d="M 925.5,260.5 C 927.027,260.427 928.027,261.094 928.5,262.5C 926.973,262.573 925.973,261.906 925.5,260.5 Z"/></g>
<g><path style="opacity:0.318" fill="#6e6b69" d="M 962.5,260.5 C 964.853,261.34 966.853,262.674 968.5,264.5C 965.802,264.155 963.802,262.822 962.5,260.5 Z"/></g>
<g><path style="opacity:0.427" fill="#6f6c6b" d="M 930.5,263.5 C 934.049,264.723 937.049,266.723 939.5,269.5C 935.975,268.241 932.975,266.241 930.5,263.5 Z"/></g>
<g><path style="opacity:0.541" fill="#74706f" d="M 974.5,268.5 C 979.88,270.855 984.546,274.188 988.5,278.5C 983.473,275.655 978.806,272.321 974.5,268.5 Z"/></g>
<g><path style="opacity:0.78" fill="#6b6867" d="M 953.5,279.5 C 955.749,280.08 957.415,281.413 958.5,283.5C 956.251,282.92 954.585,281.587 953.5,279.5 Z"/></g>
<g><path style="opacity:0.827" fill="#676462" d="M 962.5,286.5 C 965.089,287.419 967.089,289.086 968.5,291.5C 965.911,290.581 963.911,288.914 962.5,286.5 Z"/></g>
<g><path style="opacity:0.318" fill="#767371" d="M 988.5,278.5 C 996.962,283.417 1004.3,289.75 1010.5,297.5C 1003.16,291.164 995.824,284.831 988.5,278.5 Z"/></g>
<g><path style="opacity:0.427" fill="#747170" d="M 854.5,299.5 C 820.462,287.859 785.462,281.026 749.5,279C 723.612,276.768 698.612,280.268 674.5,289.5C 675.058,288.21 676.058,287.377 677.5,287C 690.001,282.098 703.001,279.098 716.5,278C 764.229,274.901 810.229,282.067 854.5,299.5 Z"/></g>
<g><path style="opacity:0.427" fill="#767270" d="M 674.5,289.5 C 671.175,291.831 667.842,294.164 664.5,296.5C 666.823,292.676 670.156,290.343 674.5,289.5 Z"/></g>
<g><path style="opacity:0.78" fill="#6c6967" d="M 968.5,291.5 C 972.436,293.766 975.769,296.766 978.5,300.5C 974.564,298.234 971.231,295.234 968.5,291.5 Z"/></g>
<g><path style="opacity:1" fill="#413e3e" d="M 1071.5,296.5 C 1069.13,296.149 1066.8,295.982 1064.5,296C 1067.24,297.026 1069.57,298.526 1071.5,300.5C 1067.97,298.46 1064.31,298.127 1060.5,299.5C 1058.82,299.285 1057.82,299.952 1057.5,301.5C 1057.5,302.167 1057.17,302.5 1056.5,302.5C 1055.21,303.058 1054.38,304.058 1054,305.5C 1053.32,309.221 1053.49,312.888 1054.5,316.5C 1053.61,317.11 1052.61,317.443 1051.5,317.5C 1048.46,310.81 1049.3,304.477 1054,298.5C 1059.55,294.198 1065.39,293.531 1071.5,296.5 Z"/></g>
<g><path style="opacity:0.827" fill="#686564" d="M 1010.5,297.5 C 1014.9,300.895 1018.56,304.895 1021.5,309.5C 1017.1,306.105 1013.44,302.105 1010.5,297.5 Z"/></g>
<g><path style="opacity:0.427" fill="#7b7774" d="M 854.5,299.5 C 857.542,299.733 860.208,300.733 862.5,302.5C 859.458,302.267 856.792,301.267 854.5,299.5 Z"/></g>
<g><path style="opacity:0.78" fill="#6b6765" d="M 1060.5,299.5 C 1062.97,300.317 1065.64,300.817 1068.5,301C 1072.21,302.691 1073.38,305.525 1072,309.5C 1071.62,310.056 1071.12,310.389 1070.5,310.5C 1070.77,307.881 1070.44,305.381 1069.5,303C 1066.18,302.502 1062.85,302.335 1059.5,302.5C 1059.5,307.833 1059.5,313.167 1059.5,318.5C 1059.17,318.5 1058.83,318.5 1058.5,318.5C 1058.82,312.642 1058.49,306.975 1057.5,301.5C 1057.82,299.952 1058.82,299.285 1060.5,299.5 Z M 1067.5,307.5 C 1066.18,307.33 1065.01,307.663 1064,308.5C 1063.99,303.662 1065.16,303.329 1067.5,307.5 Z"/></g>
<g><path style="opacity:0.318" fill="#767371" d="M 587.5,311.5 C 588.347,310.034 589.68,309.2 591.5,309C 596.489,308.251 601.489,307.585 606.5,307C 590.576,304.303 574.576,303.803 558.5,305.5C 565.409,303.673 572.576,302.673 580,302.5C 589.902,303.082 599.736,304.248 609.5,306C 609.957,306.414 610.291,306.914 610.5,307.5C 602.861,309.02 595.194,310.353 587.5,311.5 Z"/></g>
<g><path style="opacity:0.318" fill="#6b6867" d="M 653.5,271.5 C 650.717,277.688 649.05,284.188 648.5,291C 649.297,299.685 650.964,308.185 653.5,316.5C 651.745,314.239 650.578,311.572 650,308.5C 647.428,299.22 647.094,289.887 649,280.5C 649.663,276.965 651.163,273.965 653.5,271.5 Z"/></g>
<g><path style="opacity:0.318" fill="#7f7b77" d="M 664.5,296.5 C 661.852,299.781 659.686,303.448 658,307.5C 656.939,312.104 656.273,316.771 656,321.5C 655.283,320.956 654.783,320.289 654.5,319.5C 654.908,312.888 656.741,306.554 660,300.5C 661.371,298.959 662.871,297.625 664.5,296.5 Z"/></g>
<g><path style="opacity:0.318" fill="#7f7b77" d="M 862.5,302.5 C 866.297,302.872 869.63,304.206 872.5,306.5C 868.863,305.737 865.53,304.403 862.5,302.5 Z"/></g>
<g><path style="opacity:1" fill="#252122" d="M 587.5,311.5 C 586.791,312.404 585.791,312.737 584.5,312.5C 581.99,312.054 579.99,312.72 578.5,314.5C 571.226,315.825 565.226,319.158 560.5,324.5C 560.158,325.338 559.492,325.672 558.5,325.5C 555.573,326.757 553.239,328.757 551.5,331.5C 550.167,332.167 549.167,333.167 548.5,334.5C 543.763,341.24 539.429,348.24 535.5,355.5C 530.106,367.63 527.44,380.463 527.5,394C 528.14,406.747 531.474,418.58 537.5,429.5C 545.306,444.627 554.306,458.961 564.5,472.5C 565.08,474.749 566.413,476.415 568.5,477.5C 569.419,480.089 571.086,482.089 573.5,483.5C 576.101,487.771 579.434,491.437 583.5,494.5C 583.44,495.043 583.107,495.376 582.5,495.5C 578.056,492.378 573.39,489.711 568.5,487.5C 567.415,485.413 565.749,484.08 563.5,483.5C 559.247,481.25 555.58,478.25 552.5,474.5C 551.089,472.086 549.089,470.419 546.5,469.5C 542.167,465.833 538.167,461.833 534.5,457.5C 533.92,455.251 532.587,453.585 530.5,452.5C 527.8,450.766 525.8,448.432 524.5,445.5C 520.749,438.329 516.749,431.329 512.5,424.5C 511.662,424.158 511.328,423.492 511.5,422.5C 510.071,416.871 508.071,411.537 505.5,406.5C 504.659,404.621 504.325,402.621 504.5,400.5C 503.668,390.524 503.334,380.524 503.5,370.5C 504.715,355.093 510.049,341.427 519.5,329.5C 523.167,326.5 526.5,323.167 529.5,319.5C 530.585,317.413 532.251,316.08 534.5,315.5C 536.848,315.408 538.514,314.408 539.5,312.5C 542.088,310.375 545.088,309.042 548.5,308.5C 552.258,308.605 555.592,307.605 558.5,305.5C 574.576,303.803 590.576,304.303 606.5,307C 601.489,307.585 596.489,308.251 591.5,309C 589.68,309.2 588.347,310.034 587.5,311.5 Z"/></g>
<g><path style="opacity:0.78" fill="#6a6766" d="M 982.5,304.5 C 987.167,307.167 990.833,310.833 993.5,315.5C 989.5,312.167 985.833,308.5 982.5,304.5 Z"/></g>
<g><path style="opacity:0.686" fill="#6c6865" d="M 558.5,305.5 C 555.592,307.605 552.258,308.605 548.5,308.5C 551.505,306.723 554.838,305.723 558.5,305.5 Z"/></g>
<g><path style="opacity:0.271" fill="#9f988b" d="M 1056.5,302.5 C 1054.29,307.012 1053.95,311.679 1055.5,316.5C 1055.17,316.5 1054.83,316.5 1054.5,316.5C 1053.49,312.888 1053.32,309.221 1054,305.5C 1054.38,304.058 1055.21,303.058 1056.5,302.5 Z"/></g>
<g><path style="opacity:0.541" fill="#706d6c" d="M 1078.5,303.5 C 1080.57,307.044 1080.9,310.71 1079.5,314.5C 1079.28,310.821 1078.94,307.154 1078.5,303.5 Z"/></g>
<g><path style="opacity:1" fill="#282425" d="M 1070.5,310.5 C 1069.83,311.167 1069.17,311.833 1068.5,312.5C 1068.88,314.258 1069.54,315.925 1070.5,317.5C 1070.17,317.833 1069.83,318.167 1069.5,318.5C 1068.71,317.23 1067.71,316.23 1066.5,315.5C 1066.21,312.516 1064.55,311.183 1061.5,311.5C 1062.01,314.388 1061.34,316.721 1059.5,318.5C 1059.5,313.167 1059.5,307.833 1059.5,302.5C 1062.85,302.335 1066.18,302.502 1069.5,303C 1070.44,305.381 1070.77,307.881 1070.5,310.5 Z M 1067.5,307.5 C 1065.16,303.329 1063.99,303.662 1064,308.5C 1065.01,307.663 1066.18,307.33 1067.5,307.5 Z"/></g>
<g><path style="opacity:0.541" fill="#726f6c" d="M 1067.5,307.5 C 1067.21,308.649 1066.38,309.316 1065,309.5C 1064.17,309.333 1063.33,309.167 1062.5,309C 1061.59,307.301 1061.26,305.467 1061.5,303.5C 1063.53,303.338 1065.53,303.505 1067.5,304C 1068.79,305.292 1068.79,306.458 1067.5,307.5 Z M 1067.5,307.5 C 1065.16,303.329 1063.99,303.662 1064,308.5C 1065.01,307.663 1066.18,307.33 1067.5,307.5 Z"/></g>
<g><path style="opacity:0.173" fill="#7d7977" d="M 584.5,312.5 C 582.786,313.738 580.786,314.405 578.5,314.5C 579.99,312.72 581.99,312.054 584.5,312.5 Z"/></g>
<g><path style="opacity:0.071" fill="#817d78" d="M 1066.5,315.5 C 1065.21,314.942 1064.38,313.942 1064,312.5C 1063.67,314.5 1063.33,316.5 1063,318.5C 1061.99,319.337 1060.82,319.67 1059.5,319.5C 1059.5,319.167 1059.5,318.833 1059.5,318.5C 1061.34,316.721 1062.01,314.388 1061.5,311.5C 1064.55,311.183 1066.21,312.516 1066.5,315.5 Z"/></g>
<g><path style="opacity:0.596" fill="#6d6966" d="M 539.5,312.5 C 538.514,314.408 536.848,315.408 534.5,315.5C 535.659,313.75 537.326,312.75 539.5,312.5 Z"/></g>
<g><path style="opacity:1" fill="#2d292a" d="M 1071.5,296.5 C 1075.17,297.5 1077.5,299.833 1078.5,303.5C 1078.94,307.154 1079.28,310.821 1079.5,314.5C 1079.77,316.38 1079.1,317.713 1077.5,318.5C 1071.98,324.392 1065.31,326.058 1057.5,323.5C 1056.88,322.373 1056.04,321.373 1055,320.5C 1054.33,319.5 1054.33,318.5 1055,317.5C 1056.13,319.141 1057.63,320.141 1059.5,320.5C 1060.95,321.94 1062.78,322.607 1065,322.5C 1066.38,322.486 1067.55,322.152 1068.5,321.5C 1071.37,321.631 1073.03,320.297 1073.5,317.5C 1074.75,317.423 1075.58,316.756 1076,315.5C 1076.67,312.167 1076.67,308.833 1076,305.5C 1075.62,304.058 1074.79,303.058 1073.5,302.5C 1072.5,302.167 1071.83,301.5 1071.5,300.5C 1069.57,298.526 1067.24,297.026 1064.5,296C 1066.8,295.982 1069.13,296.149 1071.5,296.5 Z"/></g>
<g><path style="opacity:0.827" fill="#706c69" d="M 1073.5,302.5 C 1074.79,303.058 1075.62,304.058 1076,305.5C 1076.67,308.833 1076.67,312.167 1076,315.5C 1075.58,316.756 1074.75,317.423 1073.5,317.5C 1076.17,312.5 1076.17,307.5 1073.5,302.5 Z"/></g>
<g><path style="opacity:0.071" fill="#7d7976" d="M 994.5,316.5 C 996.587,317.585 997.92,319.251 998.5,321.5C 996.413,320.415 995.08,318.749 994.5,316.5 Z"/></g>
<g><path style="opacity:0.173" fill="#7e7b78" d="M 1068.5,312.5 C 1069.95,314.437 1071.62,316.103 1073.5,317.5C 1073.03,320.297 1071.37,321.631 1068.5,321.5C 1068.92,320.778 1069.58,320.278 1070.5,320C 1067.93,319.568 1066.59,318.068 1066.5,315.5C 1067.71,316.23 1068.71,317.23 1069.5,318.5C 1069.83,318.167 1070.17,317.833 1070.5,317.5C 1069.54,315.925 1068.88,314.258 1068.5,312.5 Z"/></g>
<g><path style="opacity:0.318" fill="#797674" d="M 578.5,314.5 C 572.287,317.363 566.287,320.696 560.5,324.5C 565.226,319.158 571.226,315.825 578.5,314.5 Z"/></g>
<g><path style="opacity:0.686" fill="#625f5e" d="M 1054.5,316.5 C 1054.83,316.5 1055.17,316.5 1055.5,316.5C 1056.5,317.167 1057.5,317.833 1058.5,318.5C 1058.5,319.167 1058.83,319.5 1059.5,319.5C 1059.5,319.833 1059.5,320.167 1059.5,320.5C 1057.63,320.141 1056.13,319.141 1055,317.5C 1054.33,318.5 1054.33,319.5 1055,320.5C 1056.04,321.373 1056.88,322.373 1057.5,323.5C 1054.5,322.5 1052.5,320.5 1051.5,317.5C 1052.61,317.443 1053.61,317.11 1054.5,316.5 Z"/></g>
<g><path style="opacity:0.318" fill="#84807b" d="M 1059.5,320.5 C 1062.46,321.159 1065.46,321.492 1068.5,321.5C 1067.55,322.152 1066.38,322.486 1065,322.5C 1062.78,322.607 1060.95,321.94 1059.5,320.5 Z"/></g>
<g><path style="opacity:0.78" fill="#6a6665" d="M 529.5,319.5 C 526.5,323.167 523.167,326.5 519.5,329.5C 521.833,325.167 525.167,321.833 529.5,319.5 Z"/></g>
<g><path style="opacity:0.541" fill="#716e6c" d="M 896.5,317.5 C 914.788,324.97 931.455,334.97 946.5,347.5C 930.456,336.477 913.789,326.477 896.5,317.5 Z"/></g>
<g><path style="opacity:0.541" fill="#706d6c" d="M 1077.5,318.5 C 1076.34,321.822 1074.01,323.988 1070.5,325C 1065.76,327.222 1061.43,326.722 1057.5,323.5C 1065.31,326.058 1071.98,324.392 1077.5,318.5 Z"/></g>
<g><path style="opacity:0.875" fill="#646160" d="M 614.5,327.5 C 608.38,325.762 603.38,327.429 599.5,332.5C 601.748,327.209 605.748,324.709 611.5,325C 612.942,325.377 613.942,326.21 614.5,327.5 Z"/></g>
<g><path style="opacity:1" fill="#242021" d="M 614.5,327.5 C 616.262,328.262 617.262,329.596 617.5,331.5C 617.259,333.898 617.926,335.898 619.5,337.5C 621.129,375.807 621.962,414.14 622,452.5C 622.819,465.062 624.319,477.395 626.5,489.5C 626.98,501.55 628.98,513.217 632.5,524.5C 633.098,531.23 634.764,537.564 637.5,543.5C 638.738,545.214 639.405,547.214 639.5,549.5C 639.667,553.673 641,557.34 643.5,560.5C 651.441,577.535 661.774,593.035 674.5,607C 678.903,610.519 683.237,614.019 687.5,617.5C 688.802,619.822 690.802,621.155 693.5,621.5C 693.833,621.5 694.167,621.5 694.5,621.5C 694.937,623.074 695.937,624.241 697.5,625C 704.516,629.011 711.85,632.178 719.5,634.5C 720.85,635.65 720.684,636.317 719,636.5C 710.556,633.518 702.056,630.851 693.5,628.5C 692.089,626.461 690.089,625.461 687.5,625.5C 686.508,625.672 685.842,625.338 685.5,624.5C 677.838,619.841 670.172,615.174 662.5,610.5C 658.466,606.464 654.132,602.798 649.5,599.5C 632.118,582.759 619.784,562.759 612.5,539.5C 612.072,536.215 611.072,533.215 609.5,530.5C 608.662,530.158 608.328,529.492 608.5,528.5C 594.549,480.508 587.882,431.508 588.5,381.5C 588.5,381.167 588.5,380.833 588.5,380.5C 589.924,372.023 590.924,363.356 591.5,354.5C 593.245,350.8 594.245,346.8 594.5,342.5C 596.674,339.485 598.341,336.151 599.5,332.5C 603.38,327.429 608.38,325.762 614.5,327.5 Z"/></g>
<g><path style="opacity:0.071" fill="#827e7b" d="M 558.5,325.5 C 556.761,328.243 554.427,330.243 551.5,331.5C 553.239,328.757 555.573,326.757 558.5,325.5 Z"/></g>
<g><path style="opacity:0.875" fill="#646160" d="M 1004.5,330.5 C 1007.08,331.985 1008.42,334.318 1008.5,337.5C 1006.93,335.365 1005.6,333.032 1004.5,330.5 Z"/></g>
<g><path style="opacity:0.071" fill="#86827f" d="M 551.5,331.5 C 551.5,333.5 550.5,334.5 548.5,334.5C 549.167,333.167 550.167,332.167 551.5,331.5 Z"/></g>
<g><path style="opacity:0.933" fill="#6c6863" d="M 617.5,331.5 C 619.074,333.102 619.741,335.102 619.5,337.5C 617.926,335.898 617.259,333.898 617.5,331.5 Z"/></g>
<g><path style="opacity:0.318" fill="#777472" d="M 599.5,332.5 C 598.341,336.151 596.674,339.485 594.5,342.5C 595.127,338.58 596.793,335.247 599.5,332.5 Z"/></g>
<g><path style="opacity:0.596" fill="#7c7874" d="M 594.5,342.5 C 594.245,346.8 593.245,350.8 591.5,354.5C 591.584,350.163 592.584,346.163 594.5,342.5 Z"/></g>
<g><path style="opacity:0.427" fill="#7b7875" d="M 946.5,347.5 C 950.051,349.111 953.051,351.444 955.5,354.5C 951.949,352.889 948.949,350.556 946.5,347.5 Z"/></g>
<g><path style="opacity:0.427" fill="#74716f" d="M 1008.5,337.5 C 1009.79,338.058 1010.62,339.058 1011,340.5C 1016.17,354.609 1016.84,368.942 1013,383.5C 1012.62,384.056 1012.12,384.389 1011.5,384.5C 1016.31,368.664 1015.31,352.997 1008.5,337.5 Z"/></g>
<g><path style="opacity:0.071" fill="#767270" d="M 958.5,357.5 C 961.764,359.094 964.431,361.427 966.5,364.5C 963.236,362.906 960.569,360.573 958.5,357.5 Z"/></g>
<g><path style="opacity:0.173" fill="#7b7876" d="M 591.5,354.5 C 590.924,363.356 589.924,372.023 588.5,380.5C 588.204,371.544 589.204,362.878 591.5,354.5 Z"/></g>
<g><path style="opacity:0.686" fill="#716d6c" d="M 651.5,364.5 C 657.798,368.471 663.465,373.138 668.5,378.5C 662.246,374.582 656.579,369.915 651.5,364.5 Z"/></g>
<g><path style="opacity:0.686" fill="#706c6a" d="M 966.5,364.5 C 968.587,365.585 969.92,367.251 970.5,369.5C 968.413,368.415 967.08,366.749 966.5,364.5 Z"/></g>
<g><path style="opacity:0.875" fill="#6b6765" d="M 1047.5,358.5 C 1049.5,364.434 1049.83,370.434 1048.5,376.5C 1048.3,370.491 1047.97,364.491 1047.5,358.5 Z"/></g>
<g><path style="opacity:0.78" fill="#5a5757" d="M 503.5,370.5 C 503.334,380.524 503.668,390.524 504.5,400.5C 503.572,397.411 502.572,394.245 501.5,391C 502.15,384.068 502.817,377.234 503.5,370.5 Z"/></g>
<g><path style="opacity:0.271" fill="#989288" d="M 687.5,390.5 C 689.027,390.427 690.027,391.094 690.5,392.5C 688.973,392.573 687.973,391.906 687.5,390.5 Z"/></g>
<g><path style="opacity:0.596" fill="#615e5e" d="M 982.5,388.5 C 983.991,391.186 984.657,394.186 984.5,397.5C 984.495,399.696 984.162,401.696 983.5,403.5C 983.587,398.463 983.254,393.463 982.5,388.5 Z"/></g>
<g><path style="opacity:0.318" fill="#6a6665" d="M 535.5,355.5 C 531.352,368.376 529.019,381.542 528.5,395C 529.852,406.907 532.852,418.407 537.5,429.5C 531.474,418.58 528.14,406.747 527.5,394C 527.44,380.463 530.106,367.63 535.5,355.5 Z"/></g>
<g><path style="opacity:0.173" fill="#767270" d="M 1006.5,393.5 C 998.664,403.856 988.498,411.189 976,415.5C 974.485,414.075 974.985,413.075 977.5,412.5C 977.833,413.833 978.167,413.833 978.5,412.5C 989.429,408.581 998.762,402.247 1006.5,393.5 Z"/></g>
<g><path style="opacity:0.686" fill="#686563" d="M 731.5,411.5 C 734.649,411.415 737.316,412.415 739.5,414.5C 736.458,414.267 733.792,413.267 731.5,411.5 Z"/></g>
<g><path style="opacity:0.686" fill="#625f5e" d="M 505.5,406.5 C 508.071,411.537 510.071,416.871 511.5,422.5C 508.536,417.618 506.536,412.285 505.5,406.5 Z"/></g>
<g><path style="opacity:0.78" fill="#6a6766" d="M 753.5,419.5 C 756.916,419.528 759.916,420.528 762.5,422.5C 761.883,422.611 761.383,422.944 761,423.5C 758.481,422.092 755.981,420.758 753.5,419.5 Z"/></g>
<g><path style="opacity:0.071" fill="#7c7875" d="M 762.5,422.5 C 770.759,424.815 779.092,426.982 787.5,429C 789.066,429.608 790.4,430.442 791.5,431.5C 781.428,429.474 771.762,426.474 762.5,422.5 Z"/></g>
<g><path style="opacity:0.427" fill="#73706e" d="M 791.5,431.5 C 798.682,431.444 805.349,433.11 811.5,436.5C 804.573,435.435 797.906,433.768 791.5,431.5 Z"/></g>
<g><path style="opacity:0.596" fill="#716d6b" d="M 512.5,424.5 C 516.749,431.329 520.749,438.329 524.5,445.5C 521.443,441.742 518.61,437.742 516,433.5C 514.259,430.691 513.092,427.691 512.5,424.5 Z"/></g>
<g><path style="opacity:0.318" fill="#767372" d="M 1017.5,429.5 C 1013.34,433.754 1008.34,436.754 1002.5,438.5C 1007.23,435.11 1012.23,432.11 1017.5,429.5 Z"/></g>
<g><path style="opacity:0.173" fill="#807d7b" d="M 811.5,436.5 C 813.857,436.337 816.19,436.503 818.5,437C 822.004,437.986 825.337,439.153 828.5,440.5C 822.544,439.913 816.878,438.579 811.5,436.5 Z"/></g>
<g><path style="opacity:0.173" fill="#797573" d="M 998.5,440.5 C 994.201,442.935 989.534,444.602 984.5,445.5C 988.559,442.698 993.225,441.031 998.5,440.5 Z"/></g>
<g><path style="opacity:0.173" fill="#7e7a78" d="M 833.5,441.5 C 839.824,442.331 846.157,443.165 852.5,444C 853.056,444.383 853.389,444.883 853.5,445.5C 846.59,444.797 839.923,443.463 833.5,441.5 Z"/></g>
<g><path style="opacity:0.071" fill="#87837f" d="M 619.5,337.5 C 621.039,343.932 621.872,350.599 622,357.5C 622.333,386.167 622.667,414.833 623,443.5C 623.896,458.859 625.063,474.193 626.5,489.5C 624.319,477.395 622.819,465.062 622,452.5C 621.962,414.14 621.129,375.807 619.5,337.5 Z"/></g>
<g><path style="opacity:0.071" fill="#83807d" d="M 984.5,445.5 C 981.781,446.913 978.781,447.58 975.5,447.5C 978.123,445.735 981.123,445.068 984.5,445.5 Z"/></g>
<g><path style="opacity:0.541" fill="#787574" d="M 853.5,445.5 C 865.769,446.335 877.769,448.002 889.5,450.5C 877.192,450.097 865.192,448.43 853.5,445.5 Z"/></g>
<g><path style="opacity:0.318" fill="#73706e" d="M 966.5,449.5 C 965.122,450.234 963.622,450.901 962,451.5C 961.667,451.167 961.333,450.833 961,450.5C 937.064,454.314 913.231,454.314 889.5,450.5C 915.205,452.016 940.872,451.683 966.5,449.5 Z"/></g>
<g><path style="opacity:0.071" fill="#7c7874" d="M 530.5,452.5 C 532.587,453.585 533.92,455.251 534.5,457.5C 532.413,456.415 531.08,454.749 530.5,452.5 Z"/></g>
<g><path style="opacity:0.427" fill="#787573" d="M 1006.5,464.5 C 1000.98,459.73 994.98,459.23 988.5,463C 981.344,467.992 975.01,473.825 969.5,480.5C 974.316,472.185 980.983,465.685 989.5,461C 994.076,459.524 998.743,459.19 1003.5,460C 1005.14,461.129 1006.14,462.629 1006.5,464.5 Z"/></g>
<g><path style="opacity:1" fill="#262223" d="M 1006.5,464.5 C 1006.56,470.264 1005.9,475.93 1004.5,481.5C 1004.6,483.553 1003.93,485.22 1002.5,486.5C 1000.38,489.088 999.042,492.088 998.5,495.5C 996.412,497.336 995.079,499.669 994.5,502.5C 984.393,520.93 972.726,538.263 959.5,554.5C 958.094,554.973 957.427,555.973 957.5,557.5C 957.167,558.5 956.5,559.167 955.5,559.5C 953.413,560.585 952.08,562.251 951.5,564.5C 942.572,576.098 932.572,586.764 921.5,596.5C 919.5,596.5 918.5,597.5 918.5,599.5C 910.749,606.92 902.416,613.586 893.5,619.5C 891.288,620.645 888.955,621.645 886.5,622.5C 885.873,623.417 885.539,624.417 885.5,625.5C 882.663,625.684 880.663,627.018 879.5,629.5C 875.361,630.335 872.028,632.335 869.5,635.5C 866.318,635.584 863.985,636.917 862.5,639.5C 860.95,640.441 859.284,641.107 857.5,641.5C 852.914,642.46 848.914,644.46 845.5,647.5C 843.302,647.12 841.635,647.787 840.5,649.5C 839.07,650.537 837.403,651.204 835.5,651.5C 830.085,652.194 825.085,653.86 820.5,656.5C 802.13,661.106 783.463,663.773 764.5,664.5C 747.066,664.438 730.066,661.772 713.5,656.5C 710.759,656.293 708.426,655.293 706.5,653.5C 706.389,652.883 706.056,652.383 705.5,652C 714.574,652.057 723.574,653.057 732.5,655C 743.828,655.5 755.162,655.667 766.5,655.5C 769.85,655.665 773.183,655.498 776.5,655C 782.498,653.76 788.165,652.26 793.5,650.5C 801.94,649.643 810.273,647.81 818.5,645C 819.056,644.617 819.389,644.117 819.5,643.5C 820.78,642.069 822.447,641.402 824.5,641.5C 831.123,640.686 836.79,638.02 841.5,633.5C 844.089,633.539 846.089,632.539 847.5,630.5C 847.842,629.662 848.508,629.328 849.5,629.5C 852.198,629.155 854.198,627.822 855.5,625.5C 862.825,620.169 870.158,614.836 877.5,609.5C 882.44,606.23 886.773,602.23 890.5,597.5C 894.544,594.457 897.877,590.791 900.5,586.5C 909.559,574.737 918.392,562.737 927,550.5C 936.022,533.776 945.522,517.443 955.5,501.5C 958.164,499.516 959.831,496.849 960.5,493.5C 961.34,491.147 962.674,489.147 964.5,487.5C 966.9,485.704 968.567,483.37 969.5,480.5C 975.01,473.825 981.344,467.992 988.5,463C 994.98,459.23 1000.98,459.73 1006.5,464.5 Z"/></g>
<g><path style="opacity:0.318" fill="#7e7b78" d="M 1006.5,464.5 C 1008.01,470.376 1007.35,476.043 1004.5,481.5C 1005.9,475.93 1006.56,470.264 1006.5,464.5 Z"/></g>
<g><path style="opacity:0.541" fill="#726e6c" d="M 546.5,469.5 C 549.089,470.419 551.089,472.086 552.5,474.5C 549.911,473.581 547.911,471.914 546.5,469.5 Z"/></g>
<g><path style="opacity:0.541" fill="#757270" d="M 564.5,472.5 C 566.587,473.585 567.92,475.251 568.5,477.5C 566.413,476.415 565.08,474.749 564.5,472.5 Z"/></g>
<g><path style="opacity:0.541" fill="#74706e" d="M 568.5,477.5 C 570.914,478.911 572.581,480.911 573.5,483.5C 571.086,482.089 569.419,480.089 568.5,477.5 Z"/></g>
<g><path style="opacity:0.427" fill="#73706e" d="M 969.5,480.5 C 968.567,483.37 966.9,485.704 964.5,487.5C 965.433,484.63 967.1,482.296 969.5,480.5 Z"/></g>
<g><path style="opacity:0.78" fill="#6c6867" d="M 573.5,483.5 C 577.566,486.563 580.899,490.229 583.5,494.5C 579.434,491.437 576.101,487.771 573.5,483.5 Z"/></g>
<g><path style="opacity:0.173" fill="#807c7a" d="M 563.5,483.5 C 565.749,484.08 567.415,485.413 568.5,487.5C 566.251,486.92 564.585,485.587 563.5,483.5 Z"/></g>
<g><path style="opacity:0.427" fill="#757270" d="M 568.5,487.5 C 573.39,489.711 578.056,492.378 582.5,495.5C 583.107,495.376 583.44,495.043 583.5,494.5C 586.814,495.295 588.314,497.295 588,500.5C 581.051,496.696 574.551,492.363 568.5,487.5 Z"/></g>
<g><path style="opacity:0.173" fill="#827e79" d="M 588.5,381.5 C 587.882,431.508 594.549,480.508 608.5,528.5C 603.782,516.982 600.282,504.982 598,492.5C 592.25,464.7 588.417,436.867 586.5,409C 587.155,399.735 587.821,390.568 588.5,381.5 Z"/></g>
<g><path style="opacity:0.318" fill="#7c7976" d="M 1002.5,486.5 C 1001.96,489.912 1000.62,492.912 998.5,495.5C 999.042,492.088 1000.38,489.088 1002.5,486.5 Z"/></g>
<g><path style="opacity:0.173" fill="#878380" d="M 998.5,495.5 C 997.921,498.331 996.588,500.664 994.5,502.5C 995.079,499.669 996.412,497.336 998.5,495.5 Z"/></g>
<g><path style="opacity:0.596" fill="#74706d" d="M 960.5,493.5 C 959.831,496.849 958.164,499.516 955.5,501.5C 956.669,498.489 958.336,495.822 960.5,493.5 Z"/></g>
<g><path style="opacity:0.173" fill="#87837e" d="M 626.5,489.5 C 628.588,501.023 630.588,512.69 632.5,524.5C 628.98,513.217 626.98,501.55 626.5,489.5 Z"/></g>
<g><path style="opacity:0.596" fill="#7c7875" d="M 632.5,524.5 C 634.611,530.606 636.278,536.939 637.5,543.5C 634.764,537.564 633.098,531.23 632.5,524.5 Z"/></g>
<g><path style="opacity:0.071" fill="#7f7b78" d="M 609.5,530.5 C 611.072,533.215 612.072,536.215 612.5,539.5C 610.528,536.916 609.528,533.916 609.5,530.5 Z"/></g>
<g><path style="opacity:0.071" fill="#86827e" d="M 959.5,554.5 C 959.573,556.027 958.906,557.027 957.5,557.5C 957.427,555.973 958.094,554.973 959.5,554.5 Z"/></g>
<g><path style="opacity:0.427" fill="#716e6b" d="M 639.5,549.5 C 641.208,552.95 642.541,556.617 643.5,560.5C 641,557.34 639.667,553.673 639.5,549.5 Z"/></g>
<g><path style="opacity:0.173" fill="#7e7a76" d="M 955.5,559.5 C 954.92,561.749 953.587,563.415 951.5,564.5C 952.08,562.251 953.413,560.585 955.5,559.5 Z"/></g>
<g><path style="opacity:0.596" fill="#676463" d="M 900.5,586.5 C 897.877,590.791 894.544,594.457 890.5,597.5C 893.152,593.183 896.485,589.516 900.5,586.5 Z"/></g>
<g><path style="opacity:0.071" fill="#86827e" d="M 921.5,596.5 C 920.833,597.833 919.833,598.833 918.5,599.5C 918.5,597.5 919.5,596.5 921.5,596.5 Z"/></g>
<g><path style="opacity:0.541" fill="#73706f" d="M 649.5,599.5 C 654.132,602.798 658.466,606.464 662.5,610.5C 657.281,607.954 652.948,604.287 649.5,599.5 Z"/></g>
<g><path style="opacity:0.78" fill="#5e5b5b" d="M 890.5,597.5 C 886.773,602.23 882.44,606.23 877.5,609.5C 881.227,604.77 885.56,600.77 890.5,597.5 Z"/></g>
<g><path style="opacity:0.541" fill="#716e6d" d="M 662.5,610.5 C 670.172,615.174 677.838,619.841 685.5,624.5C 676.658,621.587 668.991,616.921 662.5,610.5 Z"/></g>
<g><path style="opacity:0.427" fill="#706d6d" d="M 687.5,617.5 C 689.853,618.34 691.853,619.674 693.5,621.5C 690.802,621.155 688.802,619.822 687.5,617.5 Z"/></g>
<g><path style="opacity:1" fill="#5c5857" d="M 893.5,619.5 C 891.23,621.975 888.563,623.975 885.5,625.5C 885.539,624.417 885.873,623.417 886.5,622.5C 888.955,621.645 891.288,620.645 893.5,619.5 Z"/></g>
<g><path style="opacity:0.596" fill="#6f6c6a" d="M 694.5,621.5 C 702.742,626.12 711.075,630.453 719.5,634.5C 711.85,632.178 704.516,629.011 697.5,625C 695.937,624.241 694.937,623.074 694.5,621.5 Z"/></g>
<g><path style="opacity:0.596" fill="#686665" d="M 855.5,625.5 C 854.198,627.822 852.198,629.155 849.5,629.5C 851.147,627.674 853.147,626.34 855.5,625.5 Z"/></g>
<g><path style="opacity:0.173" fill="#787573" d="M 885.5,625.5 C 883.795,627.192 881.795,628.525 879.5,629.5C 880.663,627.018 882.663,625.684 885.5,625.5 Z"/></g>
<g><path style="opacity:0.427" fill="#747170" d="M 687.5,625.5 C 690.089,625.461 692.089,626.461 693.5,628.5C 691.033,628.245 689.033,627.245 687.5,625.5 Z"/></g>
<g><path style="opacity:0.318" fill="#74706e" d="M 879.5,629.5 C 876.434,631.89 873.1,633.89 869.5,635.5C 872.028,632.335 875.361,630.335 879.5,629.5 Z"/></g>
<g><path style="opacity:0.427" fill="#716f6f" d="M 847.5,630.5 C 846.089,632.539 844.089,633.539 841.5,633.5C 843.181,631.992 845.181,630.992 847.5,630.5 Z"/></g>
<g><path style="opacity:0.427" fill="#73706e" d="M 693.5,628.5 C 702.056,630.851 710.556,633.518 719,636.5C 720.684,636.317 720.85,635.65 719.5,634.5C 723.458,635.319 727.125,636.819 730.5,639C 730,639.5 729.5,640 729,640.5C 716.647,637.772 704.814,633.772 693.5,628.5 Z"/></g>
<g><path style="opacity:0.596" fill="#6c6968" d="M 869.5,635.5 C 867.365,637.071 865.032,638.404 862.5,639.5C 863.985,636.917 866.318,635.584 869.5,635.5 Z"/></g>
<g><path style="opacity:0.933" fill="#63605f" d="M 841.5,633.5 C 836.79,638.02 831.123,640.686 824.5,641.5C 829.977,638.597 835.643,635.93 841.5,633.5 Z"/></g>
<g><path style="opacity:0.427" fill="#74706e" d="M 857.5,641.5 C 853.849,643.992 849.849,645.992 845.5,647.5C 848.914,644.46 852.914,642.46 857.5,641.5 Z"/></g>
<g><path style="opacity:0.596" fill="#6d6968" d="M 819.5,643.5 C 819.389,644.117 819.056,644.617 818.5,645C 810.273,647.81 801.94,649.643 793.5,650.5C 802.064,648.19 810.731,645.857 819.5,643.5 Z"/></g>
<g><path style="opacity:0.071" fill="#898580" d="M 845.5,647.5 C 844.07,648.537 842.403,649.204 840.5,649.5C 841.635,647.787 843.302,647.12 845.5,647.5 Z"/></g>
<g><path style="opacity:0.071" fill="#7a7673" d="M 773.5,653.5 C 771.167,654.167 768.833,654.833 766.5,655.5C 755.162,655.667 743.828,655.5 732.5,655C 723.574,653.057 714.574,652.057 705.5,652C 706.056,652.383 706.389,652.883 706.5,653.5C 703.273,653.22 700.607,651.887 698.5,649.5C 699.333,649.167 700.167,648.833 701,648.5C 725.321,653.796 749.488,655.462 773.5,653.5 Z"/></g>
<g><path style="opacity:0.071" fill="#86827d" d="M 835.5,651.5 C 830.784,653.739 825.784,655.405 820.5,656.5C 825.085,653.86 830.085,652.194 835.5,651.5 Z"/></g>
<g><path style="opacity:0.933" fill="#524e4e" d="M 793.5,650.5 C 788.165,652.26 782.498,653.76 776.5,655C 773.183,655.498 769.85,655.665 766.5,655.5C 768.833,654.833 771.167,654.167 773.5,653.5C 780.164,652.5 786.831,651.5 793.5,650.5 Z"/></g>
<g><path style="opacity:0.318" fill="#807c79" d="M 713.5,656.5 C 730.066,661.772 747.066,664.438 764.5,664.5C 783.463,663.773 802.13,661.106 820.5,656.5C 794.031,665.488 767.197,667.821 740,663.5C 730.856,662.837 722.023,660.504 713.5,656.5 Z"/></g>
<g><path style="opacity:0.173" fill="#84817e" d="M 424.5,728.5 C 414.889,726.526 404.889,725.859 394.5,726.5C 394.5,727.5 394.5,728.5 394.5,729.5C 392.896,728.713 392.229,727.38 392.5,725.5C 403.5,725.5 414.5,725.5 425.5,725.5C 425.737,726.791 425.404,727.791 424.5,728.5 Z"/></g>
<g><path style="opacity:0.071" fill="#959089" d="M 504.5,726.5 C 508.351,725.191 512.351,725.191 516.5,726.5C 515.68,728.111 514.346,728.778 512.5,728.5C 512.918,727.778 513.584,727.278 514.5,727C 511.183,726.502 507.85,726.335 504.5,726.5 Z"/></g>
<g><path style="opacity:0.318" fill="#7f7d7b" d="M 688.5,728.5 C 683.712,727.172 678.546,726.505 673,726.5C 667.833,726.667 662.667,726.833 657.5,727C 658.861,728.584 659.528,730.418 659.5,732.5C 657.707,730.574 656.707,728.241 656.5,725.5C 667.5,725.5 678.5,725.5 689.5,725.5C 689.737,726.791 689.404,727.791 688.5,728.5 Z"/></g>
<g><path style="opacity:0.173" fill="#878481" d="M 794.5,728.5 C 790.386,727.174 785.886,726.507 781,726.5C 776.114,726.507 771.614,727.174 767.5,728.5C 766.596,727.791 766.263,726.791 766.5,725.5C 776.167,725.5 785.833,725.5 795.5,725.5C 795.737,726.791 795.404,727.791 794.5,728.5 Z"/></g>
<g><path style="opacity:0.173" fill="#868381" d="M 1004.5,728.5 C 999.712,727.172 994.546,726.505 989,726.5C 983.454,726.505 978.288,727.172 973.5,728.5C 972.596,727.791 972.263,726.791 972.5,725.5C 983.5,725.5 994.5,725.5 1005.5,725.5C 1005.74,726.791 1005.4,727.791 1004.5,728.5 Z"/></g>
<g><path style="opacity:0.686" fill="#5a5757" d="M 1136.5,728.5 C 1127.49,727.999 1118.49,727.333 1109.5,726.5C 1103.52,727.165 1097.52,727.499 1091.5,727.5C 1097.94,726.056 1104.61,725.39 1111.5,725.5C 1120.12,725.287 1128.45,726.287 1136.5,728.5 Z"/></g>
<g><path style="opacity:0.78" fill="#63605e" d="M 504.5,726.5 C 507.85,726.335 511.183,726.502 514.5,727C 513.584,727.278 512.918,727.778 512.5,728.5C 510.491,730.065 508.157,731.065 505.5,731.5C 507.121,729.883 509.121,728.716 511.5,728C 499.838,727.5 488.171,727.333 476.5,727.5C 476.741,729.898 476.074,731.898 474.5,733.5C 474.042,730.606 474.709,728.106 476.5,726C 485.911,725.195 495.244,725.362 504.5,726.5 Z"/></g>
<g><path style="opacity:0.827" fill="#3b3838" d="M 633.5,727.5 C 605.48,726.842 577.813,727.508 550.5,729.5C 549.662,729.158 549.328,728.492 549.5,727.5C 577.5,726.167 605.5,726.167 633.5,727.5 Z"/></g>
<g><path style="opacity:1" fill="#252122" d="M 424.5,728.5 C 422.254,734.306 420.92,740.306 420.5,746.5C 419.504,760.323 419.171,774.323 419.5,788.5C 421.483,788.843 422.817,788.176 423.5,786.5C 435.277,775.894 446.943,765.061 458.5,754C 462.77,750.239 466.437,746.072 469.5,741.5C 472.682,739.807 474.348,737.141 474.5,733.5C 476.074,731.898 476.741,729.898 476.5,727.5C 488.171,727.333 499.838,727.5 511.5,728C 509.121,728.716 507.121,729.883 505.5,731.5C 505.158,732.338 504.492,732.672 503.5,732.5C 500.674,732.998 498.34,734.331 496.5,736.5C 493.802,736.845 491.802,738.178 490.5,740.5C 488.251,741.08 486.585,742.413 485.5,744.5C 483.251,745.08 481.585,746.413 480.5,748.5C 472.134,757.867 463.134,766.534 453.5,774.5C 450.5,776.833 447.833,779.5 445.5,782.5C 445.5,783.833 445.5,785.167 445.5,786.5C 446.419,789.089 448.086,791.089 450.5,792.5C 452.452,793.785 454.118,795.451 455.5,797.5C 457.43,801.1 460.097,804.1 463.5,806.5C 464.833,807.167 465.833,808.167 466.5,809.5C 468.43,813.1 471.097,816.1 474.5,818.5C 476.167,819.5 477.5,820.833 478.5,822.5C 479.757,825.427 481.757,827.761 484.5,829.5C 490.937,836.438 497.603,843.271 504.5,850C 512.045,856.264 520.045,861.764 528.5,866.5C 529.6,867.558 530.934,868.392 532.5,869C 522.119,869.539 511.785,869.039 501.5,867.5C 499.447,867.598 497.78,866.931 496.5,865.5C 494.819,863.992 492.819,862.992 490.5,862.5C 486.975,861.241 483.975,859.241 481.5,856.5C 480.415,854.413 478.749,853.08 476.5,852.5C 473.167,848.5 469.5,844.833 465.5,841.5C 463.833,840.5 462.5,839.167 461.5,837.5C 460.243,834.573 458.243,832.239 455.5,830.5C 447.497,822.83 439.83,814.83 432.5,806.5C 431.581,803.911 429.914,801.911 427.5,800.5C 425.5,799.167 423.833,797.5 422.5,795.5C 422.189,794.522 421.522,793.855 420.5,793.5C 419.334,814.826 419.167,836.159 420,857.5C 420.383,858.056 420.883,858.389 421.5,858.5C 422.302,861.574 423.302,864.574 424.5,867.5C 424.5,867.833 424.5,868.167 424.5,868.5C 414.494,868.666 404.494,868.5 394.5,868C 395.38,866.644 395.714,865.144 395.5,863.5C 396.927,861.852 397.76,859.852 398,857.5C 398.667,818.167 398.667,778.833 398,739.5C 397.698,735.755 396.531,732.422 394.5,729.5C 394.5,728.5 394.5,727.5 394.5,726.5C 404.889,725.859 414.889,726.526 424.5,728.5 Z"/></g>
<g><path style="opacity:1" fill="#231f20" d="M 633.5,727.5 C 632.99,731.884 632.157,736.218 631,740.5C 630.617,741.056 630.117,741.389 629.5,741.5C 628.508,741.672 627.842,741.338 627.5,740.5C 626.158,739.207 624.491,738.374 622.5,738C 607.253,735.794 591.919,734.961 576.5,735.5C 576.17,753.341 576.503,771.008 577.5,788.5C 593.5,788.5 609.5,788.5 625.5,788.5C 624.518,791.763 623.851,795.097 623.5,798.5C 607.572,796.7 591.572,796.033 575.5,796.5C 575.5,817.833 575.5,839.167 575.5,860.5C 588.171,860.667 600.838,860.5 613.5,860C 618.101,859.851 622.434,859.018 626.5,857.5C 630.579,856.245 634.579,854.578 638.5,852.5C 639.124,852.917 639.457,853.584 639.5,854.5C 638.242,859.125 637.242,863.792 636.5,868.5C 607.481,869.159 578.814,868.492 550.5,866.5C 551.629,862.848 552.629,859.182 553.5,855.5C 554.833,816.833 554.833,778.167 553.5,739.5C 552.511,736.274 551.511,732.94 550.5,729.5C 577.813,727.508 605.48,726.842 633.5,727.5 Z"/></g>
<g><path style="opacity:1" fill="#242021" d="M 688.5,728.5 C 687.034,729.347 686.2,730.68 686,732.5C 684.97,736.773 684.303,741.106 684,745.5C 683.333,774.167 683.333,802.833 684,831.5C 684.232,832.737 684.732,833.737 685.5,834.5C 686.736,836.649 687.736,838.982 688.5,841.5C 688.427,843.027 689.094,844.027 690.5,844.5C 691.833,847.833 694.167,850.167 697.5,851.5C 699.51,854.027 702.177,855.861 705.5,857C 718.277,861.318 730.944,861.484 743.5,857.5C 753.401,853.552 761.401,847.218 767.5,838.5C 769.472,835.916 770.472,832.916 770.5,829.5C 771.29,828.391 771.79,827.058 772,825.5C 772.667,797.833 772.667,770.167 772,742.5C 771.961,737.219 770.461,732.553 767.5,728.5C 771.614,727.174 776.114,726.507 781,726.5C 785.886,726.507 790.386,727.174 794.5,728.5C 793.5,731.167 792.5,733.833 791.5,736.5C 790.778,736.918 790.278,737.584 790,738.5C 789.5,768.498 789.333,798.498 789.5,828.5C 788.686,840.131 783.686,849.465 774.5,856.5C 772.973,856.427 771.973,857.094 771.5,858.5C 756.915,866.395 741.249,870.062 724.5,869.5C 717.16,869.222 709.827,868.889 702.5,868.5C 698.466,868.483 694.799,867.483 691.5,865.5C 689.815,863.182 687.481,862.182 684.5,862.5C 679.619,860.291 675.619,856.957 672.5,852.5C 672.573,850.973 671.906,849.973 670.5,849.5C 670.573,847.973 669.906,846.973 668.5,846.5C 667.662,846.158 667.328,845.492 667.5,844.5C 665.057,837.388 663.557,830.055 663,822.5C 662.5,801.836 662.333,781.169 662.5,760.5C 662.666,753.159 662.5,745.826 662,738.5C 661.76,736.148 660.927,734.148 659.5,732.5C 659.528,730.418 658.861,728.584 657.5,727C 662.667,726.833 667.833,726.667 673,726.5C 678.546,726.505 683.712,727.172 688.5,728.5 Z"/></g>
<g><path style="opacity:1" fill="#252122" d="M 903.5,733.5 C 919.94,740.373 926.44,752.706 923,770.5C 921.924,776.333 919.091,780.999 914.5,784.5C 912.973,784.427 911.973,785.094 911.5,786.5C 909.973,786.427 908.973,787.094 908.5,788.5C 898.888,792.357 888.888,794.69 878.5,795.5C 878.263,796.791 878.596,797.791 879.5,798.5C 880.5,798.833 881.167,799.5 881.5,800.5C 883.094,803.764 885.427,806.431 888.5,808.5C 892.105,813.774 896.438,818.441 901.5,822.5C 903.766,826.436 906.766,829.769 910.5,832.5C 915.163,836.637 919.496,841.137 923.5,846C 930.016,851.417 936.683,856.584 943.5,861.5C 946.19,864.365 949.523,866.531 953.5,868C 943.088,868.845 932.755,868.345 922.5,866.5C 920.447,866.598 918.78,865.931 917.5,864.5C 917.027,863.094 916.027,862.427 914.5,862.5C 909.803,860.822 905.803,858.156 902.5,854.5C 899.437,850.434 895.771,847.101 891.5,844.5C 886.711,840.255 882.378,835.589 878.5,830.5C 877.833,827.833 876.167,826.167 873.5,825.5C 867.795,819.797 862.462,813.797 857.5,807.5C 855.906,804.236 853.573,801.569 850.5,799.5C 849.833,799.5 849.5,799.167 849.5,798.5C 849.44,797.957 849.107,797.624 848.5,797.5C 847.334,817.492 847.167,837.492 848,857.5C 848.278,858.416 848.778,859.082 849.5,859.5C 850.363,861.421 851.029,863.421 851.5,865.5C 851.5,866.5 851.5,867.5 851.5,868.5C 841.828,868.666 832.161,868.5 822.5,868C 823.38,866.644 823.714,865.144 823.5,863.5C 823.5,863.167 823.5,862.833 823.5,862.5C 825.011,860.524 825.844,858.191 826,855.5C 826.667,816.5 826.667,777.5 826,738.5C 825.538,734.578 824.038,731.245 821.5,728.5C 821.5,728.167 821.5,727.833 821.5,727.5C 840.347,726.277 859.347,726.443 878.5,728C 887.01,729.117 895.344,730.95 903.5,733.5 Z M 848.5,735.5 C 856.809,735.081 864.976,735.747 873,737.5C 873.333,737.167 873.667,736.833 874,736.5C 880.926,738.304 887.426,740.971 893.5,744.5C 893.833,745.5 894.5,746.167 895.5,746.5C 899.196,752.954 900.863,759.954 900.5,767.5C 898.713,773.729 895.38,779.062 890.5,783.5C 886.124,785.509 881.79,787.509 877.5,789.5C 867.858,790.754 858.192,791.754 848.5,792.5C 848.5,773.5 848.5,754.5 848.5,735.5 Z"/></g>
<g><path style="opacity:0.78" fill="#696665" d="M 903.5,733.5 C 895.344,730.95 887.01,729.117 878.5,728C 859.347,726.443 840.347,726.277 821.5,727.5C 820.957,727.44 820.624,727.107 820.5,726.5C 844.275,724.698 867.942,725.531 891.5,729C 895.86,729.838 899.86,731.338 903.5,733.5 Z"/></g>
<g><path style="opacity:1" fill="#231f20" d="M 1004.5,728.5 C 1001.54,732.553 1000.04,737.219 1000,742.5C 999.333,778.833 999.333,815.167 1000,851.5C 1000.05,857.119 1001.21,862.452 1003.5,867.5C 994.014,868.494 984.348,868.827 974.5,868.5C 974.5,867.5 974.5,866.5 974.5,865.5C 976.067,864.319 976.901,862.653 977,860.5C 978.589,822.186 978.922,783.852 978,745.5C 977.95,740.873 977.117,736.54 975.5,732.5C 974.326,731.486 973.66,730.153 973.5,728.5C 978.288,727.172 983.454,726.505 989,726.5C 994.546,726.505 999.712,727.172 1004.5,728.5 Z"/></g>
<g><path style="opacity:1" fill="#252122" d="M 1136.5,728.5 C 1142.01,730.334 1147.68,732.001 1153.5,733.5C 1154.49,733.328 1155.16,733.662 1155.5,734.5C 1157.18,736.008 1159.18,737.008 1161.5,737.5C 1163,737.415 1164,738.081 1164.5,739.5C 1163.15,744.619 1161.82,749.619 1160.5,754.5C 1159.5,755.833 1158.5,755.833 1157.5,754.5C 1154.68,749.518 1150.68,745.684 1145.5,743C 1127.04,734.63 1108.04,733.296 1088.5,739C 1084.65,740.086 1081.32,741.919 1078.5,744.5C 1072.87,748.461 1067.87,753.127 1063.5,758.5C 1062.09,758.973 1061.43,759.973 1061.5,761.5C 1059.75,762.659 1058.75,764.326 1058.5,766.5C 1057.07,767.78 1056.4,769.447 1056.5,771.5C 1056.74,772.791 1056.4,773.791 1055.5,774.5C 1051.62,783.545 1050.62,792.878 1052.5,802.5C 1053.48,806.316 1054.15,810.316 1054.5,814.5C 1054.53,817.916 1055.53,820.916 1057.5,823.5C 1059.34,825.849 1060.67,828.515 1061.5,831.5C 1061.43,833.027 1062.09,834.027 1063.5,834.5C 1064.91,834.973 1065.57,835.973 1065.5,837.5C 1066.08,839.749 1067.41,841.415 1069.5,842.5C 1077.89,849.86 1087.55,854.86 1098.5,857.5C 1099.15,858.725 1100.32,859.392 1102,859.5C 1105.98,860.028 1109.98,860.362 1114,860.5C 1120.18,860.721 1126.01,859.721 1131.5,857.5C 1134.33,855.583 1137.33,853.917 1140.5,852.5C 1142.37,852.141 1143.87,851.141 1145,849.5C 1145.67,836.167 1145.67,822.833 1145,809.5C 1144.41,805.652 1143.24,801.986 1141.5,798.5C 1151.66,797.177 1161.66,797.177 1171.5,798.5C 1168.09,809.874 1166.75,821.541 1167.5,833.5C 1167.67,840.167 1167.83,846.833 1168,853.5C 1168.6,855.91 1169.77,857.91 1171.5,859.5C 1168.7,861.339 1165.7,863.006 1162.5,864.5C 1135.62,870.199 1108.62,870.866 1081.5,866.5C 1079.49,865.076 1077.15,864.41 1074.5,864.5C 1070.79,862.315 1066.79,860.648 1062.5,859.5C 1062.03,858.094 1061.03,857.427 1059.5,857.5C 1057.15,856.66 1055.15,855.326 1053.5,853.5C 1051.76,850.757 1049.43,848.757 1046.5,847.5C 1046.5,847.167 1046.5,846.833 1046.5,846.5C 1045.83,845.167 1044.83,844.167 1043.5,843.5C 1041.67,841.853 1040.34,839.853 1039.5,837.5C 1036.61,830.826 1033.95,824.159 1031.5,817.5C 1031.5,817.167 1031.5,816.833 1031.5,816.5C 1029.64,801.357 1030.31,786.357 1033.5,771.5C 1035.29,769.574 1036.29,767.241 1036.5,764.5C 1038.09,760.317 1040.42,756.65 1043.5,753.5C 1047.5,750.167 1051.17,746.5 1054.5,742.5C 1056.3,740.1 1058.63,738.433 1061.5,737.5C 1066.41,736.044 1071.08,734.044 1075.5,731.5C 1080.44,729.04 1085.77,727.707 1091.5,727.5C 1097.52,727.499 1103.52,727.165 1109.5,726.5C 1118.49,727.333 1127.49,727.999 1136.5,728.5 Z"/></g>
<g><path style="opacity:0.686" fill="#646160" d="M 1136.5,728.5 C 1142.67,728.789 1148.34,730.456 1153.5,733.5C 1147.68,732.001 1142.01,730.334 1136.5,728.5 Z"/></g>
<g><path style="opacity:0.173" fill="#817e7a" d="M 503.5,732.5 C 501.664,734.588 499.331,735.921 496.5,736.5C 498.34,734.331 500.674,732.998 503.5,732.5 Z"/></g>
<g><path style="opacity:0.596" fill="#5a5756" d="M 1075.5,731.5 C 1071.08,734.044 1066.41,736.044 1061.5,737.5C 1065.64,734.432 1070.31,732.432 1075.5,731.5 Z"/></g>
<g><path style="opacity:0.173" fill="#837f7c" d="M 629.5,741.5 C 630.117,741.389 630.617,741.056 631,740.5C 632.157,736.218 632.99,731.884 633.5,727.5C 605.5,726.167 577.5,726.167 549.5,727.5C 548.957,727.44 548.624,727.107 548.5,726.5C 577.161,725.333 605.828,725.167 634.5,726C 634.957,726.414 635.291,726.914 635.5,727.5C 634.3,732.973 632.8,738.307 631,743.5C 630.283,742.956 629.783,742.289 629.5,741.5 Z"/></g>
<g><path style="opacity:0.427" fill="#6e6b6a" d="M 1155.5,734.5 C 1158.09,734.461 1160.09,735.461 1161.5,737.5C 1159.18,737.008 1157.18,736.008 1155.5,734.5 Z"/></g>
<g><path style="opacity:0.427" fill="#747170" d="M 1157.5,754.5 C 1147.6,744.132 1135.43,738.132 1121,736.5C 1106.27,735.43 1092.11,738.096 1078.5,744.5C 1081.32,741.919 1084.65,740.086 1088.5,739C 1108.04,733.296 1127.04,734.63 1145.5,743C 1150.68,745.684 1154.68,749.518 1157.5,754.5 Z"/></g>
<g><path style="opacity:0.173" fill="#84817e" d="M 627.5,740.5 C 618.292,738.389 608.959,737.056 599.5,736.5C 592.802,737.163 585.469,737.163 577.5,736.5C 577.5,753.833 577.5,771.167 577.5,788.5C 576.503,771.008 576.17,753.341 576.5,735.5C 591.919,734.961 607.253,735.794 622.5,738C 624.491,738.374 626.158,739.207 627.5,740.5 Z"/></g>
<g><path style="opacity:0.78" fill="#6b6766" d="M 474.5,733.5 C 474.348,737.141 472.682,739.807 469.5,741.5C 471.17,738.825 472.836,736.159 474.5,733.5 Z"/></g>
<g><path style="opacity:0.071" fill="#7e7a78" d="M 496.5,736.5 C 494.853,738.326 492.853,739.66 490.5,740.5C 491.802,738.178 493.802,736.845 496.5,736.5 Z"/></g>
<g><path style="opacity:0.318" fill="#777472" d="M 893.5,744.5 C 887.426,740.971 880.926,738.304 874,736.5C 873.667,736.833 873.333,737.167 873,737.5C 864.976,735.747 856.809,735.081 848.5,735.5C 850.915,734.186 853.748,733.519 857,733.5C 867.115,733.82 876.948,735.654 886.5,739C 889.595,739.935 891.929,741.769 893.5,744.5 Z"/></g>
<g><path style="opacity:0.071" fill="#817e7a" d="M 490.5,740.5 C 489.415,742.587 487.749,743.92 485.5,744.5C 486.585,742.413 488.251,741.08 490.5,740.5 Z"/></g>
<g><path style="opacity:0.427" fill="#777371" d="M 659.5,732.5 C 660.927,734.148 661.76,736.148 662,738.5C 662.5,745.826 662.666,753.159 662.5,760.5C 662.167,760.5 661.833,760.5 661.5,760.5C 661.398,755.122 661.398,749.955 661.5,745C 660.551,740.914 659.884,736.747 659.5,732.5 Z"/></g>
<g><path style="opacity:0.173" fill="#888582" d="M 553.5,739.5 C 554.833,778.167 554.833,816.833 553.5,855.5C 553.489,817.139 553.489,778.472 553.5,739.5 Z"/></g>
<g><path style="opacity:0.827" fill="#5b5858" d="M 1054.5,742.5 C 1051.17,746.5 1047.5,750.167 1043.5,753.5C 1046.17,748.833 1049.83,745.167 1054.5,742.5 Z"/></g>
<g><path style="opacity:0.78" fill="#4e4b4b" d="M 420.5,746.5 C 420.167,760.183 420.501,773.85 421.5,787.5C 422.183,787.137 422.85,786.804 423.5,786.5C 422.817,788.176 421.483,788.843 419.5,788.5C 419.171,774.323 419.504,760.323 420.5,746.5 Z"/></g>
<g><path style="opacity:0.071" fill="#7a7774" d="M 485.5,744.5 C 484.415,746.587 482.749,747.92 480.5,748.5C 481.585,746.413 483.251,745.08 485.5,744.5 Z"/></g>
<g><path style="opacity:0.318" fill="#7a7776" d="M 1004.5,728.5 C 1002.18,735.28 1001.02,742.28 1001,749.5C 1000.07,786.187 1000.41,822.854 1002,859.5C 1002.94,862.154 1003.77,864.821 1004.5,867.5C 1004.17,867.5 1003.83,867.5 1003.5,867.5C 1001.21,862.452 1000.05,857.119 1000,851.5C 999.333,815.167 999.333,778.833 1000,742.5C 1000.04,737.219 1001.54,732.553 1004.5,728.5 Z"/></g>
<g><path style="opacity:0.071" fill="#87837d" d="M 895.5,746.5 C 898.607,749.04 900.44,752.373 901,756.5C 901.81,760.358 901.643,764.024 900.5,767.5C 900.863,759.954 899.196,752.954 895.5,746.5 Z"/></g>
<g><path style="opacity:0.596" fill="#686564" d="M 1157.5,754.5 C 1158.5,755.833 1159.5,755.833 1160.5,754.5C 1160.35,759.421 1159.35,759.421 1157.5,754.5 Z"/></g>
<g><path style="opacity:0.827" fill="#5f5c5b" d="M 1202.5,744.5 C 1204.59,746.336 1205.92,748.669 1206.5,751.5C 1205.25,751.423 1204.42,750.756 1204,749.5C 1203.67,749.833 1203.33,750.167 1203,750.5C 1202.67,753.5 1202.33,756.5 1202,759.5C 1201.62,760.056 1201.12,760.389 1200.5,760.5C 1201.92,755.246 1201.25,750.246 1198.5,745.5C 1199.88,746.574 1201.05,747.907 1202,749.5C 1203.63,748.038 1203.79,746.372 1202.5,744.5 Z"/></g>
<g><path style="opacity:0.541" fill="#757270" d="M 975.5,732.5 C 977.117,736.54 977.95,740.873 978,745.5C 978.922,783.852 978.589,822.186 977,860.5C 976.901,862.653 976.067,864.319 974.5,865.5C 975.769,859.345 976.769,853.178 977.5,847C 976.167,814.333 976.167,781.667 977.5,749C 976.643,743.564 975.976,738.064 975.5,732.5 Z"/></g>
<g><path style="opacity:0.071" fill="#87837f" d="M 1063.5,758.5 C 1063.57,760.027 1062.91,761.027 1061.5,761.5C 1061.43,759.973 1062.09,758.973 1063.5,758.5 Z"/></g>
<g><path style="opacity:0.173" fill="#85817d" d="M 1061.5,761.5 C 1061.25,763.674 1060.25,765.341 1058.5,766.5C 1058.75,764.326 1059.75,762.659 1061.5,761.5 Z"/></g>
<g><path style="opacity:0.271" fill="#a59d8e" d="M 661.5,760.5 C 661.833,760.5 662.167,760.5 662.5,760.5C 662.333,781.169 662.5,801.836 663,822.5C 663.557,830.055 665.057,837.388 667.5,844.5C 664.234,839.063 662.401,833.063 662,826.5C 661.5,804.503 661.333,782.503 661.5,760.5 Z"/></g>
<g><path style="opacity:0.427" fill="#706d6d" d="M 767.5,728.5 C 770.461,732.553 771.961,737.219 772,742.5C 772.667,770.167 772.667,797.833 772,825.5C 771.79,827.058 771.29,828.391 770.5,829.5C 771.774,798.228 771.607,767.228 770,736.5C 769.059,733.846 768.226,731.179 767.5,728.5 Z"/></g>
<g><path style="opacity:0.541" fill="#6c6969" d="M 821.5,728.5 C 824.038,731.245 825.538,734.578 826,738.5C 826.667,777.5 826.667,816.5 826,855.5C 825.844,858.191 825.011,860.524 823.5,862.5C 824.045,859.187 824.545,855.854 825,852.5C 825.667,815.833 825.667,779.167 825,742.5C 824.746,737.577 823.579,732.911 821.5,728.5 Z"/></g>
<g><path style="opacity:1" fill="#343030" d="M 1202.5,744.5 C 1203.79,746.372 1203.63,748.038 1202,749.5C 1201.05,747.907 1199.88,746.574 1198.5,745.5C 1195.21,741.198 1190.88,739.698 1185.5,741C 1184.06,741.377 1183.06,742.21 1182.5,743.5C 1182.5,743.833 1182.5,744.167 1182.5,744.5C 1180.81,745.527 1179.47,746.861 1178.5,748.5C 1177.88,748.611 1177.38,748.944 1177,749.5C 1176.83,751.167 1176.67,752.833 1176.5,754.5C 1176.32,757.205 1176.98,759.538 1178.5,761.5C 1179.4,762.29 1180.07,763.29 1180.5,764.5C 1181.34,766.173 1182.68,767.34 1184.5,768C 1187.5,768.667 1190.5,768.667 1193.5,768C 1194.42,767.722 1195.08,767.222 1195.5,766.5C 1198.5,765.526 1200.16,763.526 1200.5,760.5C 1201.12,760.389 1201.62,760.056 1202,759.5C 1202.33,756.5 1202.67,753.5 1203,750.5C 1203.33,750.167 1203.67,749.833 1204,749.5C 1204.42,750.756 1205.25,751.423 1206.5,751.5C 1207.7,760.772 1204.04,767.106 1195.5,770.5C 1191.5,770.5 1187.5,770.5 1183.5,770.5C 1176.36,767.848 1172.36,762.682 1171.5,755C 1174.8,739.846 1183.8,734.846 1198.5,740C 1200.64,740.876 1201.97,742.376 1202.5,744.5 Z M 1191.5,761.5 C 1192.11,763.775 1193.44,765.441 1195.5,766.5C 1191.22,768.112 1187.22,767.779 1183.5,765.5C 1184.58,765.461 1185.58,765.127 1186.5,764.5C 1187.31,762.234 1187.81,759.9 1188,757.5C 1188.95,759.093 1190.12,760.426 1191.5,761.5 Z M 1187.5,748.5 C 1194.05,750.045 1194.05,751.378 1187.5,752.5C 1187.5,751.167 1187.5,749.833 1187.5,748.5 Z M 1182.5,744.5 C 1182.45,750.858 1182.45,757.524 1182.5,764.5C 1181.83,764.5 1181.17,764.5 1180.5,764.5C 1180.07,763.29 1179.4,762.29 1178.5,761.5C 1177.17,757.167 1177.17,752.833 1178.5,748.5C 1179.47,746.861 1180.81,745.527 1182.5,744.5 Z M 1198.5,745.5 C 1201.25,750.246 1201.92,755.246 1200.5,760.5C 1199.69,761.429 1198.85,762.429 1198,763.5C 1197.29,762.619 1196.46,761.953 1195.5,761.5C 1195.11,759.716 1194.44,758.05 1193.5,756.5C 1197.33,754.766 1198.5,751.766 1197,747.5C 1196.62,746.944 1196.12,746.611 1195.5,746.5C 1195.08,745.778 1194.42,745.278 1193.5,745C 1189.85,744.501 1186.18,744.335 1182.5,744.5C 1182.5,744.167 1182.5,743.833 1182.5,743.5C 1188.2,741.762 1193.53,742.428 1198.5,745.5 Z"/></g>
<g><path style="opacity:0.173" fill="#817d79" d="M 1180.5,764.5 C 1181.17,764.5 1181.83,764.5 1182.5,764.5C 1182.5,765.167 1182.83,765.5 1183.5,765.5C 1187.22,767.779 1191.22,768.112 1195.5,766.5C 1195.08,767.222 1194.42,767.722 1193.5,768C 1190.5,768.667 1187.5,768.667 1184.5,768C 1182.68,767.34 1181.34,766.173 1180.5,764.5 Z"/></g>
<g><path style="opacity:0.071" fill="#807b76" d="M 1200.5,760.5 C 1200.16,763.526 1198.5,765.526 1195.5,766.5C 1193.44,765.441 1192.11,763.775 1191.5,761.5C 1192.48,762.141 1193.48,762.807 1194.5,763.5C 1195.3,763.043 1195.63,762.376 1195.5,761.5C 1196.46,761.953 1197.29,762.619 1198,763.5C 1198.85,762.429 1199.69,761.429 1200.5,760.5 Z"/></g>
<g><path style="opacity:0.071" fill="#938d85" d="M 1178.5,748.5 C 1177.17,752.833 1177.17,757.167 1178.5,761.5C 1176.98,759.538 1176.32,757.205 1176.5,754.5C 1176.67,752.833 1176.83,751.167 1177,749.5C 1177.38,748.944 1177.88,748.611 1178.5,748.5 Z"/></g>
<g><path style="opacity:0.071" fill="#817d79" d="M 1195.5,746.5 C 1196.12,746.611 1196.62,746.944 1197,747.5C 1198.5,751.766 1197.33,754.766 1193.5,756.5C 1193.75,755.078 1194.58,754.078 1196,753.5C 1196.56,751.115 1196.39,748.782 1195.5,746.5 Z"/></g>
<g><path style="opacity:0.78" fill="#6b6765" d="M 1182.5,744.5 C 1186.18,744.335 1189.85,744.501 1193.5,745C 1194.42,745.278 1195.08,745.778 1195.5,746.5C 1191.55,745.728 1187.55,745.395 1183.5,745.5C 1183.17,751.537 1183.5,757.537 1184.5,763.5C 1185.47,761.257 1185.81,758.924 1185.5,756.5C 1189.31,755.976 1191.31,757.643 1191.5,761.5C 1190.12,760.426 1188.95,759.093 1188,757.5C 1187.81,759.9 1187.31,762.234 1186.5,764.5C 1185.58,765.127 1184.58,765.461 1183.5,765.5C 1182.83,765.5 1182.5,765.167 1182.5,764.5C 1182.45,757.524 1182.45,750.858 1182.5,744.5 Z"/></g>
<g><path style="opacity:1" fill="#262223" d="M 1195.5,746.5 C 1196.39,748.782 1196.56,751.115 1196,753.5C 1194.58,754.078 1193.75,755.078 1193.5,756.5C 1194.44,758.05 1195.11,759.716 1195.5,761.5C 1195.63,762.376 1195.3,763.043 1194.5,763.5C 1193.48,762.807 1192.48,762.141 1191.5,761.5C 1191.31,757.643 1189.31,755.976 1185.5,756.5C 1185.81,758.924 1185.47,761.257 1184.5,763.5C 1183.5,757.537 1183.17,751.537 1183.5,745.5C 1187.55,745.395 1191.55,745.728 1195.5,746.5 Z M 1187.5,748.5 C 1187.5,749.833 1187.5,751.167 1187.5,752.5C 1194.05,751.378 1194.05,750.045 1187.5,748.5 Z"/></g>
<g><path style="opacity:0.427" fill="#706d6c" d="M 1186.5,747.5 C 1188.53,747.338 1190.53,747.505 1192.5,748C 1193.83,749.667 1193.83,751.333 1192.5,753C 1190.19,753.497 1187.86,753.663 1185.5,753.5C 1185.33,751.379 1185.66,749.379 1186.5,747.5 Z M 1187.5,748.5 C 1187.5,749.833 1187.5,751.167 1187.5,752.5C 1194.05,751.378 1194.05,750.045 1187.5,748.5 Z"/></g>
<g><path style="opacity:0.318" fill="#73706f" d="M 1198.5,745.5 C 1193.53,742.428 1188.2,741.762 1182.5,743.5C 1183.06,742.21 1184.06,741.377 1185.5,741C 1190.88,739.698 1195.21,741.198 1198.5,745.5 Z"/></g>
<g><path style="opacity:0.071" fill="#8c8882" d="M 1058.5,766.5 C 1058.6,768.553 1057.93,770.22 1056.5,771.5C 1056.4,769.447 1057.07,767.78 1058.5,766.5 Z"/></g>
<g><path style="opacity:0.173" fill="#908b84" d="M 1036.5,764.5 C 1036.29,767.241 1035.29,769.574 1033.5,771.5C 1033.71,768.759 1034.71,766.426 1036.5,764.5 Z"/></g>
<g><path style="opacity:0.933" fill="#555150" d="M 1183.5,770.5 C 1187.5,770.5 1191.5,770.5 1195.5,770.5C 1191.46,772.854 1187.46,772.854 1183.5,770.5 Z"/></g>
<g><path style="opacity:0.78" fill="#656260" d="M 469.5,741.5 C 466.437,746.072 462.77,750.239 458.5,754C 446.943,765.061 435.277,775.894 423.5,786.5C 438.197,770.802 453.53,755.802 469.5,741.5 Z"/></g>
<g><path style="opacity:0.173" fill="#85817e" d="M 688.5,728.5 C 687.572,731.454 686.739,734.454 686,737.5C 684.5,769.843 684.333,802.176 685.5,834.5C 684.732,833.737 684.232,832.737 684,831.5C 683.333,802.833 683.333,774.167 684,745.5C 684.303,741.106 684.97,736.773 686,732.5C 686.2,730.68 687.034,729.347 688.5,728.5 Z"/></g>
<g><path style="opacity:0.827" fill="#4f4c4c" d="M 791.5,736.5 C 791.442,767.298 790.775,797.964 789.5,828.5C 789.333,798.498 789.5,768.498 790,738.5C 790.278,737.584 790.778,736.918 791.5,736.5 Z"/></g>
<g><path style="opacity:0.071" fill="#888480" d="M 453.5,774.5 C 451.833,778.167 449.167,780.833 445.5,782.5C 447.833,779.5 450.5,776.833 453.5,774.5 Z"/></g>
<g><path style="opacity:0.686" fill="#736f6c" d="M 900.5,767.5 C 900.182,774.818 896.849,780.152 890.5,783.5C 895.38,779.062 898.713,773.729 900.5,767.5 Z"/></g>
<g><path style="opacity:0.071" fill="#8a8682" d="M 914.5,784.5 C 914.027,785.906 913.027,786.573 911.5,786.5C 911.973,785.094 912.973,784.427 914.5,784.5 Z"/></g>
<g><path style="opacity:0.78" fill="#706d6a" d="M 445.5,786.5 C 447.914,787.911 449.581,789.911 450.5,792.5C 448.086,791.089 446.419,789.089 445.5,786.5 Z"/></g>
<g><path style="opacity:0.071" fill="#85817e" d="M 911.5,786.5 C 911.027,787.906 910.027,788.573 908.5,788.5C 908.973,787.094 909.973,786.427 911.5,786.5 Z"/></g>
<g><path style="opacity:0.78" fill="#5f5c5c" d="M 877.5,789.5 C 877.082,790.222 876.416,790.722 875.5,791C 868,791.833 860.5,792.667 853,793.5C 851.293,793.492 849.793,793.158 848.5,792.5C 858.192,791.754 867.858,790.754 877.5,789.5 Z"/></g>
<g><path style="opacity:0.427" fill="#84807c" d="M 1033.5,771.5 C 1030.31,786.357 1029.64,801.357 1031.5,816.5C 1029.69,808.915 1028.69,801.581 1028.5,794.5C 1029.04,786.48 1030.7,778.813 1033.5,771.5 Z"/></g>
<g><path style="opacity:0.78" fill="#4f4b4b" d="M 422.5,795.5 C 421.168,804.809 420.501,814.476 420.5,824.5C 420.558,835.854 420.891,847.187 421.5,858.5C 420.883,858.389 420.383,858.056 420,857.5C 419.167,836.159 419.334,814.826 420.5,793.5C 421.522,793.855 422.189,794.522 422.5,795.5 Z"/></g>
<g><path style="opacity:0.318" fill="#7e7a77" d="M 908.5,788.5 C 899.94,793.479 890.606,796.313 880.5,797C 879.944,797.383 879.611,797.883 879.5,798.5C 878.596,797.791 878.263,796.791 878.5,795.5C 888.888,794.69 898.888,792.357 908.5,788.5 Z"/></g>
<g><path style="opacity:0.78" fill="#716d6b" d="M 455.5,797.5 C 458.903,799.9 461.57,802.9 463.5,806.5C 460.097,804.1 457.43,801.1 455.5,797.5 Z"/></g>
<g><path style="opacity:0.318" fill="#7f7b78" d="M 1055.5,774.5 C 1053.56,783.727 1052.56,793.06 1052.5,802.5C 1050.62,792.878 1051.62,783.545 1055.5,774.5 Z"/></g>
<g><path style="opacity:0.071" fill="#797573" d="M 850.5,799.5 C 853.573,801.569 855.906,804.236 857.5,807.5C 854.427,805.431 852.094,802.764 850.5,799.5 Z"/></g>
<g><path style="opacity:0.071" fill="#7e7a77" d="M 427.5,800.5 C 429.914,801.911 431.581,803.911 432.5,806.5C 430.086,805.089 428.419,803.089 427.5,800.5 Z"/></g>
<g><path style="opacity:0.827" fill="#6d6a68" d="M 881.5,800.5 C 884.573,802.569 886.906,805.236 888.5,808.5C 885.427,806.431 883.094,803.764 881.5,800.5 Z"/></g>
<g><path style="opacity:0.541" fill="#6e6b6b" d="M 394.5,729.5 C 396.531,732.422 397.698,735.755 398,739.5C 398.667,778.833 398.667,818.167 398,857.5C 397.76,859.852 396.927,861.852 395.5,863.5C 396.983,855.085 397.65,846.585 397.5,838C 397.017,818.973 397.017,799.807 397.5,780.5C 397.333,767.167 397.167,753.833 397,740.5C 396.263,736.793 395.429,733.127 394.5,729.5 Z"/></g>
<g><path style="opacity:0.875" fill="#6b6866" d="M 888.5,808.5 C 893.562,812.559 897.895,817.226 901.5,822.5C 896.438,818.441 892.105,813.774 888.5,808.5 Z"/></g>
<g><path style="opacity:0.78" fill="#6f6b6a" d="M 466.5,809.5 C 469.903,811.9 472.57,814.9 474.5,818.5C 471.097,816.1 468.43,813.1 466.5,809.5 Z"/></g>
<g><path style="opacity:0.427" fill="#686565" d="M 1171.5,798.5 C 1161.66,797.177 1151.66,797.177 1141.5,798.5C 1143.24,801.986 1144.41,805.652 1145,809.5C 1145.67,822.833 1145.67,836.167 1145,849.5C 1143.87,851.141 1142.37,852.141 1140.5,852.5C 1141.46,851.038 1142.62,849.705 1144,848.5C 1144.87,834.463 1144.53,820.463 1143,806.5C 1142.13,803.382 1140.96,800.382 1139.5,797.5C 1150.5,796.167 1161.5,796.167 1172.5,797.5C 1172.38,798.107 1172.04,798.44 1171.5,798.5 Z"/></g>
<g><path style="opacity:0.071" fill="#8a8682" d="M 1054.5,814.5 C 1056.07,817.215 1057.07,820.215 1057.5,823.5C 1055.53,820.916 1054.53,817.916 1054.5,814.5 Z"/></g>
<g><path style="opacity:0.596" fill="#524f4f" d="M 849.5,798.5 C 848.221,818.683 848.221,839.016 849.5,859.5C 848.778,859.082 848.278,858.416 848,857.5C 847.167,837.492 847.334,817.492 848.5,797.5C 849.107,797.624 849.44,797.957 849.5,798.5 Z"/></g>
<g><path style="opacity:0.78" fill="#726e6c" d="M 478.5,822.5 C 481.243,824.239 483.243,826.573 484.5,829.5C 481.757,827.761 479.757,825.427 478.5,822.5 Z"/></g>
<g><path style="opacity:0.827" fill="#6d6966" d="M 901.5,822.5 C 905.234,825.231 908.234,828.564 910.5,832.5C 906.766,829.769 903.766,826.436 901.5,822.5 Z"/></g>
<g><path style="opacity:0.686" fill="#6c6866" d="M 873.5,825.5 C 876.167,826.167 877.833,827.833 878.5,830.5C 876.5,829.167 874.833,827.5 873.5,825.5 Z"/></g>
<g><path style="opacity:0.173" fill="#84807c" d="M 1031.5,817.5 C 1033.95,824.159 1036.61,830.826 1039.5,837.5C 1035.09,831.632 1032.43,824.965 1031.5,817.5 Z"/></g>
<g><path style="opacity:0.071" fill="#73706e" d="M 455.5,830.5 C 458.243,832.239 460.243,834.573 461.5,837.5C 458.757,835.761 456.757,833.427 455.5,830.5 Z"/></g>
<g><path style="opacity:0.271" fill="#979187" d="M 1061.5,831.5 C 1062.91,831.973 1063.57,832.973 1063.5,834.5C 1062.09,834.027 1061.43,833.027 1061.5,831.5 Z"/></g>
<g><path style="opacity:0.318" fill="#74716f" d="M 770.5,829.5 C 770.472,832.916 769.472,835.916 767.5,838.5C 767.928,835.215 768.928,832.215 770.5,829.5 Z"/></g>
<g><path style="opacity:0.78" fill="#716d6a" d="M 1065.5,837.5 C 1067.59,838.585 1068.92,840.251 1069.5,842.5C 1067.41,841.415 1066.08,839.749 1065.5,837.5 Z"/></g>
<g><path style="opacity:0.071" fill="#827f7c" d="M 465.5,841.5 C 469.5,844.833 473.167,848.5 476.5,852.5C 471.833,849.833 468.167,846.167 465.5,841.5 Z"/></g>
<g><path style="opacity:0.173" fill="#86827f" d="M 688.5,841.5 C 689.906,841.973 690.573,842.973 690.5,844.5C 689.094,844.027 688.427,843.027 688.5,841.5 Z"/></g>
<g><path style="opacity:0.596" fill="#736f6d" d="M 690.5,844.5 C 693.167,846.5 695.5,848.833 697.5,851.5C 694.167,850.167 691.833,847.833 690.5,844.5 Z"/></g>
<g><path style="opacity:0.071" fill="#8b8782" d="M 1043.5,843.5 C 1044.83,844.167 1045.83,845.167 1046.5,846.5C 1044.5,846.5 1043.5,845.5 1043.5,843.5 Z"/></g>
<g><path style="opacity:0.173" fill="#85817c" d="M 668.5,846.5 C 669.906,846.973 670.573,847.973 670.5,849.5C 669.094,849.027 668.427,848.027 668.5,846.5 Z"/></g>
<g><path style="opacity:0.541" fill="#807c77" d="M 1046.5,847.5 C 1049.43,848.757 1051.76,850.757 1053.5,853.5C 1050.57,852.243 1048.24,850.243 1046.5,847.5 Z"/></g>
<g><path style="opacity:0.071" fill="#87837f" d="M 670.5,849.5 C 671.906,849.973 672.573,850.973 672.5,852.5C 671.094,852.027 670.427,851.027 670.5,849.5 Z"/></g>
<g><path style="opacity:0.541" fill="#777371" d="M 891.5,844.5 C 895.771,847.101 899.437,850.434 902.5,854.5C 898.229,851.899 894.563,848.566 891.5,844.5 Z"/></g>
<g><path style="opacity:0.541" fill="#777472" d="M 476.5,852.5 C 478.749,853.08 480.415,854.413 481.5,856.5C 479.251,855.92 477.585,854.587 476.5,852.5 Z"/></g>
<g><path style="opacity:0.686" fill="#615e5d" d="M 697.5,851.5 C 712.007,859.381 727.341,861.381 743.5,857.5C 730.944,861.484 718.277,861.318 705.5,857C 702.177,855.861 699.51,854.027 697.5,851.5 Z"/></g>
<g><path style="opacity:0.071" fill="#898580" d="M 774.5,856.5 C 774.027,857.906 773.027,858.573 771.5,858.5C 771.973,857.094 772.973,856.427 774.5,856.5 Z"/></g>
<g><path style="opacity:0.271" fill="#979187" d="M 1059.5,857.5 C 1061.03,857.427 1062.03,858.094 1062.5,859.5C 1060.97,859.573 1059.97,858.906 1059.5,857.5 Z"/></g>
<g><path style="opacity:0.596" fill="#6e6b6a" d="M 625.5,788.5 C 626.097,788.735 626.43,789.235 626.5,790C 625.589,793.145 624.755,796.312 624,799.5C 623.586,799.957 623.086,800.291 622.5,800.5C 616.96,798.954 611.294,798.12 605.5,798C 596.173,797.5 586.839,797.334 577.5,797.5C 577.827,818.076 577.493,838.576 576.5,859C 593.216,859.851 609.883,859.351 626.5,857.5C 622.434,859.018 618.101,859.851 613.5,860C 600.838,860.5 588.171,860.667 575.5,860.5C 575.5,839.167 575.5,817.833 575.5,796.5C 591.572,796.033 607.572,796.7 623.5,798.5C 623.851,795.097 624.518,791.763 625.5,788.5 Z"/></g>
<g><path style="opacity:0.686" fill="#5d5a59" d="M 1098.5,857.5 C 1109.48,860.067 1120.48,860.067 1131.5,857.5C 1126.01,859.721 1120.18,860.721 1114,860.5C 1109.98,860.362 1105.98,860.028 1102,859.5C 1100.32,859.392 1099.15,858.725 1098.5,857.5 Z"/></g>
<g><path style="opacity:0.318" fill="#777473" d="M 1062.5,859.5 C 1066.79,860.648 1070.79,862.315 1074.5,864.5C 1069.98,863.903 1065.98,862.237 1062.5,859.5 Z"/></g>
<g><path style="opacity:0.318" fill="#787573" d="M 1171.5,859.5 C 1172.4,860.209 1172.74,861.209 1172.5,862.5C 1169.21,863.374 1165.88,864.041 1162.5,864.5C 1165.7,863.006 1168.7,861.339 1171.5,859.5 Z"/></g>
<g><path style="opacity:0.318" fill="#787574" d="M 490.5,862.5 C 492.819,862.992 494.819,863.992 496.5,865.5C 493.911,865.539 491.911,864.539 490.5,862.5 Z"/></g>
<g><path style="opacity:0.271" fill="#958f85" d="M 914.5,862.5 C 916.027,862.427 917.027,863.094 917.5,864.5C 915.973,864.573 914.973,863.906 914.5,862.5 Z"/></g>
<g><path style="opacity:0.318" fill="#6c6968" d="M 684.5,862.5 C 687.481,862.182 689.815,863.182 691.5,865.5C 688.759,865.293 686.426,864.293 684.5,862.5 Z"/></g>
<g><path style="opacity:0.541" fill="#6f6c6c" d="M 1074.5,864.5 C 1077.15,864.41 1079.49,865.076 1081.5,866.5C 1078.85,866.59 1076.51,865.924 1074.5,864.5 Z"/></g>
<g><path style="opacity:0.78" fill="#4f4c4c" d="M 395.5,863.5 C 395.714,865.144 395.38,866.644 394.5,868C 404.494,868.5 414.494,868.666 424.5,868.5C 419.511,869.166 414.344,869.499 409,869.5C 403.454,869.495 398.288,868.828 393.5,867.5C 393.989,866.005 394.655,864.671 395.5,863.5 Z"/></g>
<g><path style="opacity:0.78" fill="#63605f" d="M 550.5,866.5 C 578.814,868.492 607.481,869.159 636.5,868.5C 637.242,863.792 638.242,859.125 639.5,854.5C 639.457,853.584 639.124,852.917 638.5,852.5C 639.172,851.733 640.005,851.066 641,850.5C 640.399,857.167 638.899,863.667 636.5,870C 607.502,870.5 578.502,870.667 549.5,870.5C 549.232,868.901 549.566,867.568 550.5,866.5 Z"/></g>
<g><path style="opacity:0.686" fill="#514e4e" d="M 823.5,863.5 C 823.714,865.144 823.38,866.644 822.5,868C 832.161,868.5 841.828,868.666 851.5,868.5C 851.5,867.5 851.5,866.5 851.5,865.5C 852.338,865.842 852.672,866.508 852.5,867.5C 847.712,868.828 842.546,869.495 837,869.5C 831.454,869.495 826.288,868.828 821.5,867.5C 821.66,865.847 822.326,864.514 823.5,863.5 Z"/></g>
<g><path style="opacity:0.78" fill="#676463" d="M 943.5,861.5 C 949.061,864.448 954.727,867.114 960.5,869.5C 953.524,870.664 946.524,870.831 939.5,870C 933.486,869.881 927.819,868.714 922.5,866.5C 932.755,868.345 943.088,868.845 953.5,868C 949.523,866.531 946.19,864.365 943.5,861.5 Z"/></g>
<g><path style="opacity:0.78" fill="#524f4e" d="M 974.5,865.5 C 974.5,866.5 974.5,867.5 974.5,868.5C 984.348,868.827 994.014,868.494 1003.5,867.5C 1003.83,867.5 1004.17,867.5 1004.5,867.5C 1005.83,868.167 1005.83,868.833 1004.5,869.5C 993.779,870.142 983.446,869.475 973.5,867.5C 973.328,866.508 973.662,865.842 974.5,865.5 Z"/></g>
<g><path style="opacity:0.427" fill="#6a6767" d="M 1162.5,864.5 C 1147.45,868.892 1131.95,870.892 1116,870.5C 1104.14,870.996 1092.64,869.663 1081.5,866.5C 1108.62,870.866 1135.62,870.199 1162.5,864.5 Z"/></g>
<g><path style="opacity:0.173" fill="#8a8784" d="M 393.5,867.5 C 398.288,868.828 403.454,869.495 409,869.5C 414.344,869.499 419.511,869.166 424.5,868.5C 424.5,868.167 424.5,867.833 424.5,867.5C 425.404,868.209 425.737,869.209 425.5,870.5C 414.5,870.5 403.5,870.5 392.5,870.5C 392.263,869.209 392.596,868.209 393.5,867.5 Z"/></g>
<g><path style="opacity:0.318" fill="#73706f" d="M 528.5,866.5 C 531.696,866.899 534.696,867.899 537.5,869.5C 529.187,870.665 520.853,870.832 512.5,870C 508.57,869.758 504.903,868.925 501.5,867.5C 511.785,869.039 522.119,869.539 532.5,869C 530.934,868.392 529.6,867.558 528.5,866.5 Z"/></g>
<g><path style="opacity:0.596" fill="#636061" d="M 771.5,858.5 C 764.316,864.405 755.983,867.905 746.5,869C 731.653,871.157 716.986,870.991 702.5,868.5C 709.827,868.889 717.16,869.222 724.5,869.5C 741.249,870.062 756.915,866.395 771.5,858.5 Z"/></g>
<g><path style="opacity:0.173" fill="#8a8683" d="M 821.5,867.5 C 826.288,868.828 831.454,869.495 837,869.5C 842.546,869.495 847.712,868.828 852.5,867.5C 853.404,868.209 853.737,869.209 853.5,870.5C 842.5,870.5 831.5,870.5 820.5,870.5C 820.263,869.209 820.596,868.209 821.5,867.5 Z"/></g>
<g><path style="opacity:0.173" fill="#8a8784" d="M 973.5,867.5 C 983.446,869.475 993.779,870.142 1004.5,869.5C 994.013,870.494 983.346,870.828 972.5,870.5C 972.263,869.209 972.596,868.209 973.5,867.5 Z"/></g>
</svg>