<svg version="1.1" id="Layer_1" xmlns="http://www.w3.org/2000/svg" xmlns:xlink="http://www.w3.org/1999/xlink" x="0px" y="0px" viewBox="0 0 216.2 41.3" style="enable-background:new 0 0 216.2 41.3;" xml:space="preserve">
 <style type="text/css">
  .st0{fill-rule:evenodd;clip-rule:evenodd;}
 </style>
 <desc>
  Created with Sketch.
 </desc>
 <g id="Page-1">
  <g id="nespresso_logo">
   <path id="Shape" class="st0" d="M196.4,6.6c-3.2,0-13.3,1.1-13.3,14c0,13.8,10.8,14.3,13,14.3c1.4,0,6.2-0.3,9.5-3.7
			c2.4-2.6,3.5-6,3.5-10.6C209.4,7.5,199.7,6.6,196.4,6.6L196.4,6.6z M200.5,29.5c-0.8,0.6-1.9,1.4-3.8,1.4h-0.3
			c-1.9,0-3-0.9-3.8-1.4c-1.9-1.7-2.7-4.9-2.7-9.5c0-8.6,4.1-10,6.5-10h0.3c2.4,0,6.5,1.4,6.5,10C203.2,24.6,202.4,27.8,200.5,29.5z
			 M40,39.3c-2.4-0.9-6-3.7-7.8-6.3c-2.4-3.2-8.7-11.7-8.7-11.7c-1.1-1.1-1.9-2.6-3-4c-2.7-4-5.7-8.3-8.9-10.9V35h3.8V20.1l3.2,4.3
			c1.6,2.3,3.5,4.9,4.9,6.6c1.1,1.1,3.5,4.3,4.3,4.9c3.5,3.4,8.9,5.4,14.3,5.4c2.4,0,4.6-0.3,6.8-1.1v-0.3c-0.8,0.3-1.9,0.3-2.7,0.3
			C44.4,40.7,42.2,40.1,40,39.3L40,39.3z M16.8,8.6c2.4,3.2,8.9,11.7,8.9,11.7c0.8,1.1,1.9,2.6,2.7,4c2.7,4,5.7,8.3,8.9,10.9V6.6
			h-3.8v14.9l-3.2-4.3c-1.6-2.6-3.2-4.9-4.9-6.6c-0.8-1.4-3.8-4.3-4.6-5.2C17.6,2,11.9,0,6.5,0C4.3,0,2.2,0.3,0,1.1v0.3
			c0.8-0.3,1.9-0.3,2.7-0.3c2.2,0,4.1,0.6,6.2,1.1C11.4,3.2,14.9,6,16.8,8.6L16.8,8.6z M159.9,21.2c-3-2.9-6.5-3.4-8.9-5.2
			c-1.9-1.4-1.6-3.4-0.8-4.6c2.2-2.9,6.8-1.7,7.8-1.4c1.4,0.3,1.9,0.6,3.2,1.4V8.3c-5.4-1.7-13.8-3.2-17,2.6
			c-1.4,2.3-1.6,6.3,1.9,8.9c3.5,2.9,9.7,4.3,10.3,6.9c0.5,1.4,0,2.6-0.8,3.4c-3.2,3.2-8.4,1.1-11.6-0.3v3.4c3.5,1.7,8.1,2,11.9,1.1
			c2.7-0.6,5.7-3.2,6.2-6.3C162.6,24.9,161.8,22.9,159.9,21.2L159.9,21.2z M179.4,21.2c-3-2.9-6.5-3.4-8.9-5.2
			c-1.9-1.4-1.6-3.4-0.8-4.6c2.2-2.6,6.5-1.4,7.6-1.1c1.4,0.3,1.9,0.6,3.2,1.4V8.3c-5.4-1.7-13.8-3.2-17,2.6
			c-1.1,2.3-1.4,6.3,2.2,8.9c3.5,2.9,9.7,4.3,10.3,6.9c0.5,1.4,0,2.6-0.8,3.4c-3.2,3.2-8.4,1.1-11.6-0.3v3.4c3.5,1.7,7.8,2,11.9,1.1
			c2.7-0.6,5.7-3.2,6.2-6.3C182.1,24.9,181.3,22.9,179.4,21.2L179.4,21.2z M124.7,34.4h17v-3.4h-11.1v-8.9h8.9v-3.2h-8.9v-8.3h11.1
			V7.5h-17V34.4z M76,21.2c-3-2.9-6.5-3.4-8.9-5.2c-1.9-1.4-1.6-3.4-0.8-4.6c2.2-2.6,6.5-1.4,7.6-1.1c1.4,0.3,1.9,0.6,3.2,1.4V8.3
			c-5.4-1.7-13.8-3.2-17,2.6c-1.1,2.3-1.6,6.3,2.2,8.9c3.5,2.9,9.7,4.3,10.3,6.9c0.5,1.4,0,2.6-0.8,3.4c-3.2,3.2-8.4,1.1-11.6-0.3
			v3.4c3.5,1.7,8.1,2,11.9,1.1c2.7-0.6,5.7-3.2,6.2-6.3C78.5,24.9,77.9,22.9,76,21.2L76,21.2z M40.8,34.4h17v-3.4H46.8v-8.9h8.9
			v-3.2h-8.9v-8.3h11.1V7.5h-17V34.4z M92,7.2H80.9v27.5h5.7v-10c0,0,8.9,0.6,11.6-3.2c1.9-2.3,2.2-6.3,1.4-9.2
			C98.2,8.6,95.2,7.2,92,7.2L92,7.2z M93.1,19.5c-1.6,1.7-4.3,1.7-6.5,1.4V10.6c0,0,4.9-1.1,6.8,1.7C94.4,13.8,94.4,17.5,93.1,19.5
			L93.1,19.5z M119,21.2c1.9-2.3,2.2-6,1.4-9.2c-1.1-3.2-4.1-4.9-7.3-4.9H102v27.2h5.7v-10h2.7l6,10h6.5l-6.5-11.2
			C117.1,22.6,118.5,22.1,119,21.2L119,21.2z M114.4,19.5c-1.6,1.7-4.3,1.4-6.5,1.4v-10c0,0,4.6-1.1,6.8,1.7
			C115.5,14,115.8,17.5,114.4,19.5L114.4,19.5z M212.9,28.4c-1.9,0-3.2,1.4-3.2,3.4s1.6,3.4,3.2,3.4c1.6,0,3.2-1.4,3.2-3.4
			S214.5,28.4,212.9,28.4z M212.9,34.7c-1.6,0-3-1.4-3-3.2c0-1.7,1.4-3.2,3-3.2c1.6,0,3,1.4,3,3.2C215.6,33.5,214.3,34.7,212.9,34.7
			z M213.7,31.8c0,0,0.5-0.3,0.5-0.9s-0.5-1.1-1.1-1.1h-1.6v3.7h0.5v-1.4h1.1c0.5,0,0.8,0.3,0.8,0.9v0.6h0.5
			c-0.3-0.3-0.3-0.6-0.3-1.1S214,31.8,213.7,31.8L213.7,31.8z M212.9,31.5h-1.1v-1.1h1.1c0.3,0,0.5,0,0.5,0.6
			C213.7,31.2,213.4,31.5,212.9,31.5z">
   </path>
  </g>
 </g>
</svg>