<svg version="1.1" id="Layer_1" xmlns="http://www.w3.org/2000/svg" xmlns:xlink="http://www.w3.org/1999/xlink" x="0px" y="0px" viewBox="0 0 73.1 64.4" style="enable-background:new 0 0 73.1 64.4;" xml:space="preserve">
 <style type="text/css">
  .st0{fill-rule:evenodd;clip-rule:evenodd;fill:#000222;}
 </style>
 <g>
  <g>
   <path class="st0" d="M64,4.1c-2.3-1.8-6.8-4-13.5-4c-2,0-7.1-0.2-8.5-0.1c0,0-25-0.2-37.6,0.1C2.4,0.2,0,1.5,0,4.5
			c0,0,0,19.8,0,26.6c0,7.5,0,30,0,30c0,3.3,2.6,3.3,3.8,3.3h39c1.2,0,3.7,0,3.7-2.4l0.1-12.7c24.3,0,26.6-17.2,26.6-24.5
			C73.1,15.4,69.3,8.2,64,4.1L64,4.1z M5.9,42.2c1.4-1.8,2.7-3.6,4.1-5.4l0,0c0.7-0.9,1.4-1.9,2.1-2.8c0.2-0.2,1.4-1.9,1.4-2.2
			c0-0.2-0.1-0.4-0.5-0.9l0,0c-0.1-0.1-0.1-0.1-0.1-0.1c-0.6-0.8-1.1-1.6-1.6-2.3c-0.5-0.7-1-1.5-1.6-2.3c-0.6-0.7-1.4-1.7-2.2-2.7
			c-1.3-1.5-2.7-3.2-2.9-3.7c-0.4-1,0.1-1.6,0.3-1.7c0.2-0.2,0.5-0.3,0.7-0.3c0.2,0,0.4,0.1,0.5,0.2c0.7,0.5,4.3,5.3,5.9,7.6
			c0.3,0.4,0.6,0.9,0.9,1.4c0.3,0.5,0.6,0.9,0.9,1.4c0.2,0.2,0.3,0.4,0.5,0.6c0.2,0.2,0.3,0.4,0.5,0.6c0.1,0.1,0.2,0.3,0.3,0.4
			c0.3,0.4,0.7,0.8,0.8,1.2c0.3,0.8-0.2,1.5-0.7,2.1l-0.1,0.2c-1.7,2.3-4.7,6.4-6.7,9.1l0,0c-1,1.4-1.9,2.6-2,2.7
			c-0.2,0.2-0.5,0.3-0.8,0.3c-0.1,0-0.2,0-0.3,0c-0.3-0.1-0.6-0.3-0.7-0.7C4.5,44,5.4,42.9,5.9,42.2L5.9,42.2z M28.8,57.9
			c-0.5,0.4-1.2,0.5-1.7-0.1c-1-1.2-2-2.5-2.9-3.7c-0.7-1-1.5-2-2.2-3c0,0-0.1-0.1-0.2-0.1c-0.1,0-0.1,0-0.2,0.1
			c-1.6,1.9-5.5,6.5-5.7,6.7c-0.4,0.4-1,0.7-1.5,0.7h-0.1c-0.3,0-0.7-0.2-0.9-0.5c-0.7-0.9,0-1.9,1-3l0.3-0.3
			c0.7-0.8,1.4-1.6,2.1-2.4l0.1-0.1c0.7-0.8,1.5-1.7,2.2-2.5l0-0.1c0.4-0.4,0.7-0.9,1.2-1.1c0.4-0.3,0.9-0.4,1.5-0.4
			c0.6,0,1.2,0.2,1.6,0.6c0.5,0.5,0.9,1.1,1.4,1.8l0.1,0.1c0.2,0.2,0.3,0.4,0.5,0.6c0.6,0.8,1.2,1.5,1.7,2.3l0.2,0.3
			c0.6,0.8,1.3,1.7,1.9,2.5C29.5,57,29.2,57.6,28.8,57.9L28.8,57.9z M28.8,46.5c-0.5,0.4-1.2,0.5-1.7-0.1c-1.3-1.6-2.5-3.4-3.8-5.1
			c-0.5-0.7-1-1.3-1.4-2c0-0.1-0.1-0.1-0.1-0.1c0,0-0.1,0-0.1,0.1c-0.1,0.1-0.6,0.7-1.3,1.6c-1.8,2.2-5.3,6.3-7,8.5
			c-1.3,1.6-3.8,5-5.4,7c-0.7,0.9-1.1,1.5-1.2,1.5c-0.4,0.4-0.8,0.6-1.2,0.6H5.5c-0.3,0-0.6-0.2-0.9-0.6c-0.4-0.7-0.2-1.5,0.2-2
			c0.2-0.3,1.1-1.3,2.2-2.5c1.8-2.1,4.3-5,5.4-6.4c2.5-3.1,7.9-9.5,8.4-9.9c0.5-0.3,1-0.5,1.5-0.5c0.5,0,1,0.2,1.3,0.6
			c0.3,0.4,1.6,2.2,2.8,3.9l0,0c1,1.4,2,2.8,2.6,3.6C29.5,45.5,29.2,46.1,28.8,46.5L28.8,46.5z M28.6,20.4L28.6,20.4L27,22.5
			l-0.1,0.1c-1.3,1.8-2.8,3.7-3.2,4.2c-0.4,0.5-1.1,1-1.8,1c-0.2,0-0.5-0.1-0.7-0.2c-0.6-0.2-1.2-1-1.7-1.7
			c-0.2-0.3-0.5-0.6-0.7-0.9c-0.8-1-1.6-2-2.3-3l-0.1-0.1c-1.6-2.1-3.3-4.3-4.8-6.2c-0.6-0.8-1.2-1.5-1.8-2.3l0,0
			c-1.2-1.5-2.5-3.1-3.5-4.6C6,8.5,5.8,8.3,5.6,8.2C5.3,7.8,5,7.4,4.7,7C4.5,6.6,4.4,6.3,4.4,5.6c0-0.4,0.2-0.7,0.5-1
			c0.4-0.3,0.8-0.3,1.3-0.2c0.4,0.2,0.9,0.8,1.3,1.4C7.6,6,7.7,6.1,7.7,6.2c0.1,0.1,11.8,15.5,14,18.6c0,0,0.1,0.1,0.1,0.1
			c0,0,0.1,0,0.2-0.1l0.6-0.7c0.9-1.1,2.5-3.2,3.2-4.1l0.3-0.4c0.2-0.2,0.4-0.5,0.7-0.9l0.1-0.2c0.2-0.3,0.3-0.5,0.8-0.7l0,0
			c0.5-0.1,1,0.3,1.3,0.7C29.5,19.2,29.1,19.7,28.6,20.4L28.6,20.4z M28.4,7.4L28.4,7.4c-0.4,0.5-0.7,0.9-1,1.4l0,0.1
			c-0.4,0.5-0.7,1-1.1,1.5c-0.8,1-1.6,2.1-2.5,3.3c-0.4,0.5-0.8,0.8-1.5,0.9c-0.1,0-0.3,0-0.4,0c-0.6,0-1-0.3-1.4-0.8
			c-0.2-0.3-0.4-0.6-0.6-0.9c-0.2-0.3-0.3-0.5-0.5-0.7c-0.5-0.8-1.1-1.5-1.7-2.2l0,0c-0.4-0.6-0.9-1.1-1.3-1.7
			c-0.2-0.2-0.4-0.5-0.6-0.7c-0.3-0.4-0.6-0.8-0.9-1.2c-0.4-0.6-0.3-1.1,0.1-1.6c0.2-0.2,0.4-0.3,0.7-0.3c0.2,0.1,0.5,0.2,0.7,0.4
			c0.1,0.1,0.8,1,1.1,1.3c0.3,0.4,0.6,0.9,0.9,1.3c0.3,0.4,0.6,0.9,0.9,1.3c0.2,0.3,0.4,0.6,0.6,0.8l0,0c0.2,0.2,0.4,0.5,0.6,0.8
			c0.2,0.2,1,1.3,1.2,1.5c0,0,0.1,0.1,0.1,0.1c0,0,0.1,0,0.1-0.1c0.2-0.2,0.4-0.5,0.6-0.7l0,0c0.2-0.2,0.4-0.5,0.6-0.7
			c0.4-0.5,0.8-1,1.2-1.5c0.4-0.5,0.8-1,1.2-1.5c0.3-0.4,0.5-0.8,0.8-1.1c0.2-0.4,0.5-0.7,0.7-1.1c0.3-0.4,0.7-0.8,1.1-0.8
			c0.2,0,0.4,0.1,0.6,0.3l0,0l0,0C29.6,5.5,29.1,6.4,28.4,7.4L28.4,7.4z M48.4,33.7h-0.6c-0.4,0-1-0.3-1-1.2c0-1.6,0.1-4.6,0.1-7.5
			c0-3.9-0.1-7.6-0.1-7.6c0-0.7,0.5-1.2,1.2-1.2h1.9c2.5,0,4.2,0.8,5.1,1.4c2,1.5,3.5,4,3.5,7.4C58.5,27.5,57.6,33.7,48.4,33.7
			L48.4,33.7z M48.4,33.7">
   </path>
  </g>
 </g>
</svg>