<?xml version="1.0" encoding="UTF-8" standalone="no"?>
<!-- Created with Inkscape (http://www.inkscape.org/) -->

<svg
   width="286.59598mm"
   height="286.59293mm"
   viewBox="0 0 286.59598 286.59293"
   version="1.1"
   id="svg5"
   xml:space="preserve"
   xmlns="http://www.w3.org/2000/svg"
   xmlns:svg="http://www.w3.org/2000/svg"><defs
     id="defs2"><clipPath
       id="clipPath376"
       clipPathUnits="userSpaceOnUse"><path
         id="path374"
         d="M 0,0 H 653.622 V 900.236 H 0 Z" /></clipPath><clipPath
       id="clipPath396"
       clipPathUnits="userSpaceOnUse"><path
         id="path394"
         d="M 0,0 H 653.622 V 900.236 H 0 Z" /></clipPath><clipPath
       id="clipPath556"
       clipPathUnits="userSpaceOnUse"><path
         id="path554"
         d="M 0,0 H 653.622 V 900.236 H 0 Z" /></clipPath></defs><g
     id="layer1"
     transform="translate(-83.761923,-130.87097)"><path
       id="path356"
       style="fill:#003976;fill-opacity:1;fill-rule:nonzero;stroke:none;stroke-width:3.03058"
       d="M 83.752831,417.4639 H 370.35789 V 130.85885 H 83.752831 Z"
       clip-path="none" /><path
       id="path368"
       style="fill:#e0bf78;fill-opacity:1;fill-rule:nonzero;stroke:none;stroke-width:3.03058"
       d="m 200.36807,217.60104 c 0,5.91266 5.98843,9.36753 15.97116,9.36753 21.50197,0 38.93084,-10.82827 58.74478,-10.82827 6.52484,0 9.74938,1.92139 9.74938,5.91266 0,8.06438 -16.96822,14.20737 -31.94232,15.20443 -2.68813,-4.07007 -8.44623,-6.21875 -15.58931,-6.21875 -20.50188,0 -35.86086,20.34731 -35.86086,38.47019 0,11.21012 6.52787,17.58343 17.89254,17.58343 20.42612,0 33.93948,-20.57765 34.78501,-35.47598 -15.58628,0.9213 -26.10845,7.83405 -30.71494,22.95968 -1.00009,3.22454 -1.84259,5.37625 -3.9943,5.37625 -1.15162,0 -2.53054,-0.53944 -2.53054,-3.07301 0,-4.60648 7.37038,-11.8223 10.901,-19.58058 2.84269,-6.21875 3.45487,-19.11994 8.44623,-19.11994 1.46074,0 2.30627,0.38489 2.30627,2.4578 0,4.37616 -5.29745,11.9011 -7.21884,15.81964 4.91257,-4.45496 13.3588,-7.44917 22.42024,-7.75526 19.04417,-0.76977 38.62475,-10.52218 38.62475,-26.18422 -0.15153,-9.67664 -7.29461,-15.35898 -19.1957,-15.35898 -16.20451,0 -30.63917,11.74956 -46.22545,11.74956 -3.91854,0 -5.99146,-1.30618 -5.99146,-3.68822 0,-10.05849 39.1642,-1.76683 39.1642,-18.04407 0,-4.76105 -6.52787,-6.21876 -9.1372,-6.7582 0.84553,0.84553 1.53347,1.99715 1.53347,3.22757 0,16.50757 -52.13811,5.52778 -52.13811,23.95674 m 44.61318,91.53263 -2.37901,5.83387 h 7.44614 c 3.45486,0 5.8369,-1.84562 7.29461,-5.53081 l 2.30324,-5.8369 h -7.29461 c -3.22454,0 -5.7581,1.69107 -7.37037,5.53384 m -76.71006,5.1429 c 3.83974,0 6.52484,-1.92139 8.2159,-6.14602 l 1.8426,-4.53072 h -43.61612 c -7.5219,0 -24.41739,9.98577 -24.41739,16.5894 0.15153,4.99137 4.53072,10.82524 8.83111,13.74368 l 6.98852,-11.13132 c -1.92139,-1.15465 -4.14887,-2.84268 -4.22463,-5.07016 0,-2.07292 2.30324,-3.45486 4.30039,-3.45486 h 12.74663 l -16.51061,40.69767 h 11.90412 c 1.68804,0 2.83966,-0.9213 3.68519,-2.76389 l 15.43475,-37.93378 z m 186.74439,0.22729 c -4.83378,5.37928 -11.51318,7.98861 -21.11709,8.75535 -1.685,-2.91542 -5.29442,-4.37616 -10.28579,-4.37616 -8.98567,0 -12.67086,6.14299 -21.34741,6.14299 -7.83405,0 -14.59225,-4.68225 -19.50482,-5.06713 l -2.99724,4.45192 c 2.4578,1.46074 3.84277,3.53366 3.84277,7.21884 0,6.14299 -5.7581,16.43181 -11.90412,16.43181 -2.45477,0 -3.22454,-2.99421 -1.84259,-6.37331 l 15.58627,-38.08834 h -6.83395 c -3.68216,0 -6.37029,1.92442 -8.06135,5.8369 l -8.13711,19.50482 c -4.83984,11.51621 -12.21021,17.04702 -16.43484,17.04702 -2.30324,0 -2.83965,-1.69107 -1.91836,-3.91552 l 8.98264,-22.11414 h -7.52493 c -2.45477,0 -4.99136,0.69097 -7.06428,5.52778 l -1.92139,4.68527 c -4.68225,11.44045 -11.43741,15.81661 -15.35595,15.81661 -2.07292,0 -2.99422,-1.30619 -1.92139,-3.99128 l 4.68831,-11.51924 c 2.37597,-6.6794 2.30324,-11.21012 -4.37616,-11.21012 -7.06732,0 -13.51639,6.29452 -17.12884,10.36459 l 10.67673,-26.03269 h -8.06134 c -2.84269,0 -4.9944,0.92433 -6.83699,5.53384 l -7.98558,19.80788 c -4.9156,12.20718 -18.11985,17.73799 -23.19001,17.73799 -3.37606,0 -5.0641,-1.53651 -5.0641,-4.60649 0,-5.83689 5.83387,-12.82541 12.35871,-12.82541 h 2.38204 c 2.68812,0 4.53072,-1.38195 5.7581,-4.2216 l 2.15171,-5.06713 h -8.2947 c -14.66498,0 -28.02681,13.28303 -27.49039,27.49039 0.15455,5.37322 3.45789,8.21591 9.44632,8.21591 8.60078,0 18.04407,-4.45495 26.33877,-12.97695 l -4.99136,12.28598 h 7.90981 c 3.30031,0 5.29746,-1.53651 6.98549,-5.53081 3.99431,-9.44329 8.67655,-19.73515 14.51345,-19.73515 1.76683,0 2.60933,1.38195 1.76683,3.45487 l -4.45495,10.82826 c -2.68813,6.52787 -2.22748,11.74956 4.91257,11.74956 5.91266,0 12.44356,-3.37909 19.12296,-10.29185 -1.68803,5.99146 -0.84553,10.29185 5.75811,10.29185 6.37331,0 13.97704,-4.37615 20.88676,-12.05565 -1.15162,7.37038 2.91845,11.97989 11.13435,11.97989 13.3588,0 27.18128,-12.44053 27.18128,-25.95693 0,0 1.38195,0.1576 2.68813,0.1576 2.14868,0 5.14592,-0.76977 6.98852,-1.53954 -3.30334,4.07007 -5.45505,9.75241 -5.45505,15.58931 0,7.21884 3.99734,11.82532 11.44348,11.82532 13.44062,0 21.96261,-12.97694 23.03847,-22.65359 -8.83111,0.53945 -17.4319,5.91267 -19.9685,14.66801 -0.61217,2.22748 -1.30618,3.83975 -2.99421,3.83975 -1.30618,0 -1.99412,-0.84553 -1.99412,-2.38204 0,-3.45486 4.91257,-7.98558 6.98852,-12.5163 2.379,-5.22169 2.60933,-13.66792 6.29451,-13.66792 1.30618,0 1.76683,0.53945 1.76683,1.99716 0,3.14574 -3.91551,8.67655 -4.68528,10.44338 3.68822,-2.76389 9.74938,-4.45495 15.20443,-5.14593 12.05868,-1.61227 18.89264,-5.29745 20.34732,-15.66507 z"
       clip-path="none" /></g></svg>
